<?xml version="1.0" encoding="utf-8" standalone="no"?>
<!DOCTYPE svg PUBLIC "-//W3C//DTD SVG 1.1//EN"
  "http://www.w3.org/Graphics/SVG/1.1/DTD/svg11.dtd">
<!-- Created with matplotlib (http://matplotlib.org/) -->
<svg height="216pt" version="1.1" viewBox="0 0 360 216" width="360pt" xmlns="http://www.w3.org/2000/svg" xmlns:xlink="http://www.w3.org/1999/xlink">
 <defs>
  <style type="text/css">
*{stroke-linecap:butt;stroke-linejoin:round;stroke-miterlimit:100000;}
  </style>
 </defs>
 <g id="figure_1">
  <g id="patch_1">
   <path d="M 0 216 
L 360 216 
L 360 0 
L 0 0 
z
" style="fill:#ffffff;"/>
  </g>
  <g id="axes_1">
   <g id="patch_2">
    <path d="M 33.66 170.64 
L 347.04 170.64 
L 347.04 12.96 
L 33.66 12.96 
z
" style="fill:#ffffff;"/>
   </g>
   <g id="line2d_1">
    <path clip-path="url(#p95e3473bde)" d="M 33.4859 78.796235 
L 33.66 79.371878 
L 33.8341 79.156012 
L 34.0082 79.371878 
L 34.3564 79.371878 
L 34.5305 79.875565 
L 34.7046 79.659699 
L 34.8787 80.379252 
L 35.2269 79.515789 
L 35.401 80.235342 
L 35.5751 81.674448 
L 36.0974 80.954895 
L 36.2715 81.242716 
L 36.7938 83.113554 
L 36.9679 82.394001 
L 37.142 82.465956 
L 37.3161 83.545286 
L 37.6643 83.833107 
L 37.8384 83.257465 
L 38.3607 84.696571 
L 38.5348 84.624616 
L 38.7089 84.40875 
L 38.883 84.552661 
L 39.2312 85.775901 
L 39.4053 85.272214 
L 39.5794 85.128303 
L 39.7535 85.344169 
L 39.9276 86.135678 
L 40.1017 86.063722 
L 40.2758 86.135678 
L 40.4499 85.991767 
L 40.624 86.135678 
L 40.9722 87.143052 
L 41.1463 87.143052 
L 41.3204 87.286963 
L 41.6686 88.222382 
L 41.8427 88.726069 
L 42.1909 88.294337 
L 42.5391 88.438248 
L 42.7132 89.01389 
L 42.8873 88.86998 
L 43.0614 88.941935 
L 43.4096 90.129198 
L 43.5837 90.201153 
L 43.7578 89.913332 
L 44.106 90.452996 
L 44.4542 90.884728 
L 44.6283 90.560929 
L 45.1506 92.287857 
L 45.4988 91.532326 
L 45.6729 91.856125 
L 46.0211 92.791544 
L 46.1952 93.367187 
L 46.3693 92.071991 
L 46.8916 93.61903 
L 47.2398 92.827522 
L 47.588 94.08674 
L 47.7621 94.194673 
L 47.9362 94.554449 
L 48.2844 94.590427 
L 48.4585 95.16607 
L 48.6326 94.806293 
L 48.8067 95.202047 
L 48.9808 94.950204 
L 49.1549 95.489869 
L 49.329 95.597802 
L 49.5031 95.957578 
L 49.6772 95.849645 
L 49.8513 95.885623 
L 50.3736 96.713109 
L 50.5477 97.46864 
L 50.7218 97.396684 
L 50.8959 97.864394 
L 51.07 97.828416 
L 51.2441 98.116238 
L 51.4182 97.828416 
L 51.5923 98.404059 
L 51.7664 98.368081 
L 51.9405 98.871768 
L 52.1146 98.763835 
L 52.2887 99.15959 
L 52.4628 98.907746 
L 52.811 99.411433 
L 53.1592 98.116238 
L 53.6815 98.979701 
L 53.8556 98.943724 
L 54.3779 100.095009 
L 54.552 100.130986 
L 54.7261 101.210316 
L 54.9002 100.922495 
L 55.0743 100.346852 
L 55.2484 100.562718 
L 55.4225 100.562718 
L 55.9448 102.397579 
L 56.8153 103.332998 
L 57.6858 104.772104 
L 57.8599 104.664171 
L 58.2081 104.951993 
L 58.7304 104.37635 
L 58.9045 105.203836 
L 59.0786 104.340372 
L 59.775 106.031322 
L 59.9491 105.527635 
L 60.2973 106.103278 
L 60.6455 107.470429 
L 60.8196 107.614339 
L 60.9937 106.894786 
L 61.1678 106.786853 
L 61.3419 107.29054 
L 61.6901 107.182607 
L 61.8642 106.642942 
L 62.0383 106.714898 
L 62.3865 108.261937 
L 62.5606 108.549758 
L 62.7347 108.118026 
L 62.9088 108.189982 
L 63.0829 107.974116 
L 63.257 108.261937 
L 63.6052 109.305289 
L 63.7793 108.513781 
L 63.9534 109.053446 
L 64.4757 108.801602 
L 64.8239 109.952887 
L 64.998 109.737021 
L 65.1721 110.312664 
L 65.3462 110.348641 
L 65.6944 111.427971 
L 66.0426 110.024842 
L 66.2167 110.312664 
L 66.3908 110.924284 
L 66.5649 111.104172 
L 66.739 112.003613 
L 66.9131 111.75177 
L 67.0872 110.996239 
L 67.6095 112.183502 
L 67.7836 111.823725 
L 67.9577 111.967636 
L 68.1318 112.795122 
L 68.3059 112.903055 
L 68.6541 112.399368 
L 68.8282 112.399368 
L 69.1764 113.44272 
L 69.3505 113.370764 
L 69.5246 113.478697 
L 69.8728 114.594005 
L 70.221 113.298809 
L 70.5692 114.378139 
L 70.7433 114.234228 
L 70.9174 113.766519 
L 71.0915 113.622608 
L 71.2656 114.414117 
L 71.4397 114.342161 
L 71.7879 115.601379 
L 72.1361 115.601379 
L 72.3102 114.953781 
L 72.4843 115.673335 
L 72.6584 115.241603 
L 72.8325 115.529424 
L 73.0066 116.105066 
L 73.3548 114.809871 
L 73.5289 114.845848 
L 73.703 114.306184 
L 74.0512 110.168753 
L 74.5735 98.655902 
L 74.9217 92.143946 
L 75.0958 90.273108 
L 75.2699 90.129198 
L 75.444 90.812773 
L 75.6181 92.000036 
L 75.9663 96.677131 
L 76.3145 98.476014 
L 76.4886 100.310875 
L 76.6627 99.663277 
L 77.0109 97.00093 
L 77.185 96.137466 
L 77.3591 94.590427 
L 78.5778 77.572995 
L 78.7519 76.349755 
L 78.926 75.989978 
L 79.1001 76.133889 
L 79.2742 76.637576 
L 79.6224 78.292548 
L 79.9706 81.962269 
L 80.4929 89.769421 
L 81.1893 98.152215 
L 81.3634 98.727858 
L 81.5375 98.511992 
L 81.7116 98.799813 
L 81.8857 98.655902 
L 82.0598 97.504617 
L 82.408 93.367187 
L 83.2785 86.71132 
L 83.4526 86.351544 
L 83.9749 83.545286 
L 84.149 83.689197 
L 84.3231 82.897688 
L 84.4972 82.753778 
L 84.6713 82.825733 
L 85.0195 84.264839 
L 85.3677 86.999141 
L 85.5418 87.358918 
L 85.7159 88.438248 
L 86.4123 94.986181 
L 86.7605 97.00093 
L 86.9346 98.583947 
L 87.1087 98.871768 
L 87.4569 100.095009 
L 87.631 101.354227 
L 87.8051 101.60607 
L 87.9792 101.60607 
L 88.1533 101.965847 
L 88.5015 101.60607 
L 88.8497 102.037802 
L 89.0238 102.721378 
L 89.1979 102.829311 
L 89.5461 101.030428 
L 89.7202 100.886517 
L 89.8943 100.922495 
L 90.0684 100.130986 
L 90.2425 99.987076 
L 90.5907 102.793333 
L 90.9389 103.404953 
L 91.113 103.29702 
L 91.2871 103.76473 
L 91.4612 103.692775 
L 91.6353 104.520261 
L 91.9835 103.548864 
L 92.1576 103.620819 
L 92.3317 103.009199 
L 92.5058 102.937244 
L 92.6799 103.548864 
L 92.854 103.045177 
L 93.0281 103.045177 
L 93.2022 102.901266 
L 93.3763 103.512886 
L 93.5504 103.584842 
L 93.8986 103.117132 
L 94.0727 103.76473 
L 94.2468 103.584842 
L 94.4209 103.656797 
L 94.595 103.944618 
L 94.9432 103.90864 
L 95.1173 102.901266 
L 95.4655 102.937244 
L 95.6396 102.433557 
L 95.8137 102.649422 
L 95.9878 101.929869 
L 96.1619 102.145735 
L 96.5101 103.368976 
L 96.8583 102.253668 
L 97.2065 100.958473 
L 97.3806 101.354227 
L 97.5547 101.246294 
L 97.7288 101.60607 
L 97.9029 100.166964 
L 98.077 100.130986 
L 98.5993 100.706629 
L 98.7734 100.706629 
L 98.9475 100.85054 
L 99.1216 100.059031 
L 99.2957 100.095009 
L 99.4698 100.778584 
L 99.818 100.130986 
L 100.1662 101.102383 
L 100.3403 100.886517 
L 100.5144 101.390204 
L 100.6885 101.498137 
L 100.8626 101.102383 
L 101.0367 101.102383 
L 101.2108 101.857914 
L 101.3849 101.749981 
L 101.559 101.318249 
L 101.7331 101.210316 
L 101.9072 101.821936 
L 102.0813 101.60607 
L 102.2554 101.174338 
L 102.7777 102.037802 
L 103.3 103.261043 
L 103.6482 103.225065 
L 103.8223 103.476909 
L 104.1705 104.628194 
L 104.6928 103.872663 
L 104.8669 104.37635 
L 105.041 104.484283 
L 105.2151 105.167858 
L 105.3892 105.131881 
L 105.5633 105.491657 
L 105.7374 105.167858 
L 106.0856 105.995345 
L 106.2597 105.491657 
L 106.4338 105.491657 
L 106.6079 106.175233 
L 106.782 106.319144 
L 106.9561 105.491657 
L 107.1302 105.239814 
L 107.3043 106.355121 
L 107.4784 106.570987 
L 107.6525 107.002719 
L 107.8266 106.966741 
L 108.0007 107.506406 
L 108.523 107.614339 
L 108.6971 108.046071 
L 109.0453 109.233334 
L 109.2194 108.765624 
L 109.3935 108.909535 
L 109.5676 109.844954 
L 109.7417 109.880932 
L 110.0899 110.348641 
L 110.4381 110.924284 
L 110.6122 110.132775 
L 111.1345 111.212105 
L 111.4827 111.176127 
L 111.6568 111.679815 
L 111.8309 111.571882 
L 112.1791 112.687189 
L 112.5273 112.939033 
L 112.7014 112.97501 
L 112.8755 113.226854 
L 113.2237 113.226854 
L 113.3978 113.550653 
L 113.5719 113.226854 
L 113.9201 113.406742 
L 114.0942 113.082943 
L 114.2683 113.946407 
L 114.4424 113.730541 
L 114.6165 113.766519 
L 114.7906 114.378139 
L 114.9647 115.457469 
L 115.1388 115.637357 
L 115.3129 115.169647 
L 115.487 115.205625 
L 115.6611 115.025737 
L 115.8352 115.74529 
L 116.0093 115.961156 
L 116.1834 115.74529 
L 116.8798 116.96853 
L 117.0539 116.35691 
L 117.228 116.572776 
L 117.5762 116.392888 
L 117.7503 116.860597 
L 117.9244 116.860597 
L 118.0985 117.328307 
L 118.7949 115.637357 
L 118.969 116.141044 
L 119.1431 116.284955 
L 119.4913 117.004508 
L 119.8395 116.536798 
L 120.1877 117.292329 
L 120.5359 116.35691 
L 120.8841 117.724061 
L 121.2323 117.544173 
L 121.7546 118.119815 
L 121.9287 118.155793 
L 122.1028 118.04786 
L 122.6251 118.335681 
L 122.7992 118.119815 
L 122.9733 118.191771 
L 123.3215 118.947301 
L 123.4956 118.875346 
L 123.8438 118.155793 
L 124.0179 119.235123 
L 124.192 119.558922 
L 124.3661 119.594899 
L 124.5402 119.882721 
L 124.7143 119.594899 
L 125.0625 120.746184 
L 125.4107 119.594899 
L 126.4553 121.177916 
L 126.6294 121.177916 
L 126.8035 120.782162 
L 126.9776 120.746184 
L 127.1517 121.465737 
L 127.3258 121.501715 
L 127.4999 122.401157 
L 127.674 122.473112 
L 128.3704 122.113335 
L 128.5445 121.861492 
L 128.8927 122.437134 
L 129.0668 122.329201 
L 129.2409 122.617022 
L 129.5891 123.696352 
L 130.1114 122.473112 
L 130.2855 123.048754 
L 130.4596 122.760933 
L 130.6337 123.804285 
L 130.8078 123.840263 
L 131.156 123.228643 
L 131.3301 123.156687 
L 131.5042 123.300598 
L 131.6783 123.156687 
L 131.8524 123.516464 
L 132.0265 123.300598 
L 132.5488 125.315347 
L 132.7229 125.495235 
L 132.897 125.027526 
L 133.0711 124.991548 
L 133.2452 125.279369 
L 133.4193 124.631771 
L 133.5934 124.667749 
L 133.7675 124.379928 
L 134.1157 125.675123 
L 134.2898 126.0349 
L 134.4639 125.855012 
L 134.638 125.926967 
L 134.8121 125.819034 
L 134.9862 126.484621 
L 135.1603 126.430654 
L 135.3344 126.64652 
L 135.5085 127.56395 
L 135.6826 127.707861 
L 136.0308 126.898364 
L 136.2049 127.096241 
L 136.379 127.006297 
L 136.5531 127.204174 
L 136.7272 126.988308 
L 136.9013 127.959705 
L 137.0754 128.049649 
L 137.4236 127.707861 
L 137.5977 128.247526 
L 137.9459 127.204174 
L 138.2941 128.715235 
L 138.4682 128.751213 
L 138.6423 128.283504 
L 138.8164 128.553336 
L 139.1646 129.884509 
L 139.3387 129.884509 
L 139.861 128.841157 
L 140.0351 129.2549 
L 140.2092 130.046409 
L 140.5574 130.118364 
L 140.7315 130.388197 
L 140.9056 129.650655 
L 141.0797 129.650655 
L 141.2538 130.514118 
L 141.602 129.992442 
L 141.9502 130.154342 
L 142.4725 129.542722 
L 142.6466 129.812554 
L 142.8207 130.676018 
L 142.9948 130.604063 
L 143.5171 130.855906 
L 143.6912 130.136353 
L 144.0394 130.442163 
L 144.2135 130.999817 
L 144.3876 131.179705 
L 144.7358 131.809314 
L 145.084 132.097135 
L 145.2581 132.672778 
L 145.4322 132.7987 
L 145.6063 132.115124 
L 145.7804 132.474901 
L 145.9545 132.02518 
L 146.1286 132.474901 
L 146.4768 132.384957 
L 147.3473 133.662163 
L 147.5214 133.392331 
L 148.2178 134.381717 
L 148.7401 133.536242 
L 148.9142 134.237806 
L 149.0883 134.291772 
L 149.2624 134.507638 
L 149.6106 133.590208 
L 149.7847 133.71613 
L 149.9588 133.41032 
L 150.1329 133.590208 
L 150.307 133.590208 
L 150.4811 132.313001 
L 150.8293 127.438029 
L 151.1775 119.594899 
L 152.9185 60.375675 
L 153.2667 56.058356 
L 153.4408 56.777909 
L 153.6149 58.720702 
L 154.1372 71.312883 
L 155.0077 97.828416 
L 155.7041 112.111546 
L 156.2264 117.975905 
L 157.271 123.876241 
L 157.6192 124.703727 
L 157.7933 125.135459 
L 158.1415 124.883615 
L 158.3156 125.063503 
L 158.4897 124.34395 
L 158.8379 121.213894 
L 160.0566 101.138361 
L 160.5789 95.705735 
L 160.9271 93.798919 
L 161.1012 94.374561 
L 161.6235 101.102383 
L 162.8422 119.163167 
L 163.1904 121.501715 
L 163.7127 124.523838 
L 163.8868 124.487861 
L 164.235 125.783056 
L 164.5832 125.890989 
L 164.7573 126.070878 
L 164.9314 125.783056 
L 165.1055 125.711101 
L 165.4537 126.934341 
L 165.6278 127.006297 
L 165.976 128.175571 
L 166.1501 127.923727 
L 166.3242 127.276129 
L 166.6724 127.977693 
L 166.8465 128.571325 
L 167.1947 128.841157 
L 167.5429 128.139593 
L 167.717 128.571325 
L 167.8911 128.481381 
L 168.0652 128.823168 
L 168.2393 128.823168 
L 168.5875 129.668643 
L 168.7616 128.931101 
L 168.9357 129.686632 
L 169.1098 129.272889 
L 169.2839 129.236912 
L 169.458 128.80518 
L 169.6321 129.075012 
L 169.8062 128.80518 
L 170.3285 128.94909 
L 170.6767 129.794565 
L 171.199 127.977693 
L 171.3731 128.013671 
L 171.7213 127.204174 
L 171.8954 127.168196 
L 172.0695 128.013671 
L 172.2436 127.959705 
L 172.4177 127.348084 
L 172.5918 127.222163 
L 172.7659 127.72585 
L 173.2882 126.250766 
L 173.4623 126.286744 
L 173.6364 125.639146 
L 173.8105 125.56719 
L 173.9846 125.027526 
L 174.1587 124.883615 
L 174.3328 125.315347 
L 174.5069 126.070878 
L 174.681 126.214788 
L 174.8551 126.142833 
L 175.2033 126.64652 
L 175.3774 126.430654 
L 175.5515 127.312107 
L 175.7256 126.988308 
L 176.0738 125.531213 
L 176.422 126.736464 
L 176.5961 126.430654 
L 176.7702 125.890989 
L 176.9443 126.970319 
L 177.4666 126.592554 
L 177.9889 127.671883 
L 178.6853 126.358699 
L 178.8594 127.168196 
L 179.0335 126.970319 
L 179.5558 125.998922 
L 179.7299 125.890989 
L 180.0781 126.80842 
L 180.2522 126.664509 
L 180.4263 126.80842 
L 180.6004 127.42004 
L 180.7745 127.078252 
L 180.9486 127.887749 
L 181.1227 128.103615 
L 181.2968 127.761828 
L 181.4709 127.797805 
L 181.645 127.509984 
L 181.8191 128.049649 
L 181.9932 127.56395 
L 182.3414 127.635906 
L 182.5155 127.438029 
L 182.6896 127.72585 
L 182.8637 128.229537 
L 183.0378 127.995682 
L 183.2119 128.751213 
L 183.386 128.283504 
L 183.5601 128.33747 
L 183.7342 128.715235 
L 183.9083 128.679258 
L 184.0824 128.517358 
L 184.2565 128.64328 
L 184.6047 128.049649 
L 184.9529 128.697247 
L 185.127 128.697247 
L 185.3011 127.941716 
L 185.4752 128.733224 
L 185.6493 128.589314 
L 185.8234 128.121604 
L 186.3457 129.758588 
L 186.5198 129.326856 
L 186.6939 129.56071 
L 186.868 129.56071 
L 187.0421 130.280264 
L 187.2162 129.956465 
L 187.3903 129.380822 
L 187.5644 129.632666 
L 187.7385 130.478141 
L 188.2608 130.226297 
L 188.609 130.442163 
L 188.7831 130.694007 
L 189.1313 131.845292 
L 189.3054 131.881269 
L 190.0018 132.546856 
L 190.1759 132.348979 
L 190.35 132.402945 
L 190.5241 133.086521 
L 190.6982 132.564845 
L 190.8723 132.690767 
L 191.2205 133.698141 
L 191.3946 133.464286 
L 191.5687 134.057918 
L 191.9169 133.644175 
L 192.091 134.399705 
L 192.2651 134.417694 
L 192.4392 134.147862 
L 192.6133 134.48965 
L 192.7874 134.471661 
L 192.9615 134.651549 
L 193.1356 135.029314 
L 193.3097 135.029314 
L 193.4838 135.317136 
L 194.0061 134.687527 
L 194.1802 134.471661 
L 194.3543 134.867415 
L 194.5284 135.766856 
L 194.7025 135.874789 
L 195.0507 134.993337 
L 195.2248 135.371102 
L 195.3989 135.335124 
L 195.573 136.0187 
L 195.7471 135.640935 
L 196.0953 136.198588 
L 196.4435 135.802834 
L 196.9658 136.252555 
L 197.314 135.874789 
L 197.4881 136.162611 
L 197.6622 136.900153 
L 198.0104 136.774231 
L 198.3586 137.116019 
L 198.5327 137.008086 
L 198.7068 137.134007 
L 199.055 136.432443 
L 199.2291 136.954119 
L 199.4032 136.738253 
L 199.5773 137.277918 
L 199.7514 137.367862 
L 200.0996 137.997471 
L 200.2737 137.997471 
L 200.4478 137.583728 
L 200.9701 137.997471 
L 201.1442 137.871549 
L 201.3183 137.367862 
L 201.8406 138.465181 
L 202.1888 138.195348 
L 202.3629 138.573114 
L 202.537 138.051438 
L 203.0593 138.663058 
L 203.2334 138.339259 
L 203.4075 138.429203 
L 203.7557 139.09479 
L 203.9298 139.112779 
L 204.1039 139.436577 
L 204.278 139.328644 
L 204.4521 139.364622 
L 204.6262 138.986857 
L 204.8003 139.184734 
L 204.9744 139.562499 
L 205.1485 139.418589 
L 205.3226 138.681047 
L 205.4967 138.806968 
L 205.8449 139.760376 
L 206.019 139.580488 
L 206.1931 139.922276 
L 206.3672 139.796354 
L 206.5413 140.01222 
L 206.8895 140.605851 
L 207.0636 140.354008 
L 207.2377 140.497918 
L 207.4118 140.336019 
L 207.5859 140.425963 
L 207.76 140.066186 
L 207.9341 140.156131 
L 208.2823 141.433337 
L 208.4564 141.811103 
L 208.8046 140.731773 
L 208.9787 141.145516 
L 209.1528 141.217472 
L 209.501 141.595237 
L 209.8492 140.911661 
L 210.3715 141.757136 
L 210.5456 141.775125 
L 210.7197 141.919036 
L 210.8938 141.865069 
L 211.0679 141.937025 
L 211.242 141.775125 
L 211.4161 141.883058 
L 211.5902 142.458701 
L 211.9384 142.674567 
L 212.1125 142.638589 
L 212.2866 142.962388 
L 212.4607 142.458701 
L 212.6348 142.548645 
L 212.983 143.124287 
L 213.1571 143.214232 
L 213.8535 142.890433 
L 214.2017 142.332779 
L 214.724 143.160265 
L 214.8981 143.286187 
L 215.2463 143.843841 
L 215.5945 143.034343 
L 215.7686 143.196243 
L 215.9427 143.556019 
L 216.1168 143.627975 
L 216.2909 143.340153 
L 216.465 143.39412 
L 216.6391 143.574008 
L 216.8132 143.53803 
L 217.3355 144.257584 
L 217.5096 144.113673 
L 217.6837 143.807863 
L 217.8578 144.00574 
L 218.0319 144.47345 
L 218.206 144.203617 
L 218.3801 144.221606 
L 218.5542 144.527416 
L 218.7283 144.347528 
L 218.9024 144.419483 
L 219.0765 144.131662 
L 219.7729 145.166019 
L 220.1211 146.263338 
L 220.2952 146.380265 
L 220.4693 146.362277 
L 220.6434 146.218366 
L 220.8175 145.768645 
L 220.9916 144.968142 
L 221.1657 144.761271 
L 221.3398 144.761271 
L 221.5139 145.08507 
L 221.688 145.750656 
L 221.8621 145.507807 
L 222.2103 146.191383 
L 222.3844 146.056466 
L 222.5585 145.741662 
L 222.7326 146.335293 
L 222.9067 145.939539 
L 223.429 146.650098 
L 223.6031 146.623115 
L 224.1254 147.234735 
L 224.2995 147.027863 
L 224.4736 147.567528 
L 224.8218 147.783394 
L 224.9959 147.279707 
L 225.17 147.207752 
L 225.3441 147.639483 
L 225.5182 147.558534 
L 226.0405 146.668087 
L 226.5628 147.945294 
L 226.7369 148.404009 
L 227.0851 147.864344 
L 227.2592 147.900321 
L 227.4333 148.125182 
L 227.7815 147.639483 
L 227.9556 147.900321 
L 228.3038 147.486578 
L 228.4779 147.513562 
L 228.652 147.675461 
L 229.0002 147.567528 
L 229.5225 148.880713 
L 229.6966 149.096579 
L 229.8707 149.52831 
L 230.2189 149.177528 
L 230.393 149.375405 
L 230.5671 148.790768 
L 230.7412 148.709819 
L 230.9153 149.276467 
L 231.0894 149.330433 
L 231.4376 149.096579 
L 231.6117 149.2225 
L 231.7858 149.510322 
L 232.134 149.114567 
L 232.4822 149.330433 
L 232.8304 150.121942 
L 233.0045 149.942054 
L 233.3527 150.850489 
L 233.5268 150.850489 
L 233.7009 150.103953 
L 234.2232 149.798143 
L 234.3973 150.040992 
L 234.5714 149.897081 
L 234.7455 149.942054 
L 234.9196 149.699204 
L 235.0937 149.762165 
L 235.2678 150.184903 
L 235.4419 150.256858 
L 235.7901 149.510322 
L 236.1383 150.040992 
L 236.4865 150.9944 
L 236.6606 150.985406 
L 236.8347 151.291216 
L 237.0088 151.246244 
L 237.1829 151.848869 
L 237.5311 151.668981 
L 237.8793 150.346802 
L 238.0534 150.787528 
L 238.2275 150.91345 
L 238.4016 151.399149 
L 238.7498 151.588031 
L 238.9239 150.9944 
L 239.2721 151.91183 
L 239.4462 151.561048 
L 239.6203 151.579037 
L 239.7944 151.291216 
L 240.1426 151.291216 
L 240.3167 151.597026 
L 240.4908 151.60602 
L 240.6649 151.426132 
L 241.5354 152.064735 
L 241.7095 151.91183 
L 241.8836 151.291216 
L 242.0577 151.480098 
L 242.2318 151.435126 
L 242.58 151.048366 
L 242.9282 152.046746 
L 243.2764 151.659987 
L 243.4505 151.650992 
L 243.9728 152.388534 
L 244.1469 152.019763 
L 244.321 152.046746 
L 244.4951 152.226635 
L 244.6692 151.947808 
L 244.8433 152.064735 
L 245.1915 152.928199 
L 245.3656 152.901216 
L 245.5397 152.757305 
L 246.062 154.083981 
L 246.2361 153.962557 
L 246.4102 154.299847 
L 246.5843 154.155937 
L 246.9325 154.380797 
L 247.1066 154.025518 
L 247.4548 154.160434 
L 247.6289 154.128953 
L 247.803 153.701719 
L 247.9771 153.926579 
L 248.4994 155.248758 
L 248.6735 155.1813 
L 249.0217 153.953562 
L 249.1958 154.128953 
L 249.544 154.691104 
L 249.7181 154.556188 
L 249.8922 153.953562 
L 250.4145 154.655127 
L 250.5886 155.397166 
L 250.9368 154.412277 
L 251.1109 154.659624 
L 251.285 154.479736 
L 251.4591 154.790043 
L 252.1555 154.924959 
L 252.3296 154.897976 
L 252.5037 155.271244 
L 252.6778 154.727082 
L 252.8519 155.541077 
L 253.026 155.554568 
L 253.2001 155.266747 
L 253.7224 155.509596 
L 253.8965 155.977306 
L 254.0706 155.842389 
L 254.2447 156.301105 
L 254.4188 156.148199 
L 254.5929 156.287613 
L 254.9411 155.343199 
L 255.1152 155.361188 
L 255.6375 156.701356 
L 255.9857 156.422529 
L 256.1598 156.638395 
L 256.3339 156.188674 
L 256.8562 156.310099 
L 257.2044 155.860378 
L 257.3785 156.332585 
L 257.5526 156.161691 
L 257.9008 155.21278 
L 258.4231 156.858758 
L 258.5972 156.993674 
L 258.7713 156.256132 
L 258.9454 156.265127 
L 259.1195 156.723842 
L 259.2936 156.795797 
L 259.4677 156.629401 
L 260.1641 157.411915 
L 260.3382 157.353451 
L 260.5123 157.025155 
L 260.6864 157.470378 
L 260.8605 157.250015 
L 261.0346 157.366943 
L 261.2087 157.20954 
L 261.3828 157.375937 
L 261.731 157.043144 
L 261.9051 157.794177 
L 262.0792 158.005546 
L 262.2533 157.645769 
L 262.4274 157.681747 
L 262.7756 158.041524 
L 262.9497 157.852641 
L 263.1238 158.468758 
L 263.472 157.974066 
L 263.6461 157.268004 
L 263.8202 157.142082 
L 264.3425 157.645769 
L 264.5166 157.591803 
L 264.8648 158.459764 
L 265.213 158.171943 
L 265.3871 158.113479 
L 265.5612 157.875127 
L 265.7353 158.617166 
L 265.9094 158.729596 
L 266.2576 158.572194 
L 266.4317 159.111859 
L 266.6058 158.846524 
L 267.1281 158.749834 
L 267.3022 159.401929 
L 267.4763 158.459764 
L 267.6504 158.783563 
L 267.8245 158.709359 
L 268.1727 159.570574 
L 268.3468 159.253521 
L 268.5209 159.970826 
L 268.695 159.982069 
L 269.0432 159.691999 
L 269.2173 159.727976 
L 269.3914 159.455895 
L 269.5655 159.615546 
L 269.9137 160.616175 
L 270.0878 160.380071 
L 270.2619 160.816301 
L 270.6101 160.68813 
L 270.9583 160.908493 
L 271.1324 160.625169 
L 271.8288 161.239038 
L 272.177 160.834289 
L 272.5252 161.105246 
L 272.8734 160.9782 
L 273.0475 161.140099 
L 273.3957 160.283382 
L 273.5698 160.488004 
L 273.918 161.436915 
L 274.0921 160.856775 
L 274.7885 161.823675 
L 274.9626 161.782076 
L 275.1367 161.598815 
L 275.4849 161.67077 
L 275.8331 161.422299 
L 276.0072 161.720239 
L 276.1813 161.687634 
L 276.3554 161.433542 
L 276.5295 162.217743 
L 276.7036 162.405501 
L 276.8777 161.9451 
L 277.2259 162.111496 
L 277.4 162.557282 
L 277.5741 162.555033 
L 277.9223 161.776454 
L 278.6187 162.246975 
L 278.7928 162.054157 
L 279.141 163.059283 
L 279.3151 162.974679 
L 279.4892 162.449349 
L 279.6633 162.441479 
L 279.8374 162.241353 
L 280.0115 162.366151 
L 280.1856 162.013682 
L 280.3597 162.009185 
L 280.882 162.856908 
L 281.0561 162.724241 
L 281.7525 163.04818 
L 281.9266 162.80238 
L 282.1007 162.829082 
L 282.2748 163.151194 
L 282.623 162.133982 
L 282.7971 162.037292 
L 282.9712 162.327924 
L 283.1453 161.993445 
L 283.3194 162.275082 
L 283.4935 162.002439 
L 283.8417 160.944471 
L 284.364 159.505365 
L 284.5381 159.554834 
L 284.7122 159.442404 
L 285.2345 157.083619 
L 285.4086 155.640015 
L 285.7568 149.753171 
L 286.105 136.666298 
L 286.4532 111.248083 
L 287.1496 23.462598 
L 287.3237 20.656341 
L 287.4978 29.003157 
L 288.0201 86.495454 
L 288.5424 132.744733 
L 288.8906 146.874958 
L 289.2388 153.29697 
L 289.7611 157.839149 
L 289.9352 158.585686 
L 290.1093 158.830784 
L 290.6316 161.0985 
L 290.8057 161.118738 
L 290.9798 161.45378 
L 291.1539 161.296377 
L 291.328 161.486384 
L 291.5021 161.222174 
L 291.6762 161.371706 
L 291.8503 162.074394 
L 292.1985 161.934981 
L 292.3726 161.87989 
L 292.8949 163.042699 
L 293.069 163.271776 
L 293.2431 163.111984 
L 293.4172 163.168902 
L 293.7654 162.317243 
L 293.9395 162.605065 
L 294.1136 162.372896 
L 294.4618 162.458905 
L 294.81 161.748347 
L 294.9841 161.611182 
L 295.1582 161.707872 
L 295.5064 161.219925 
L 295.6805 160.456524 
L 295.8546 160.25415 
L 296.0287 159.649275 
L 296.3769 157.083619 
L 296.7251 153.054121 
L 297.0733 144.815237 
L 297.4215 128.571325 
L 297.7697 99.519366 
L 298.4661 24.254106 
L 298.6402 19.217234 
L 298.8143 22.311313 
L 299.1625 45.049192 
L 299.8589 105.311769 
L 300.3812 129.794565 
L 300.7294 138.375237 
L 301.2517 144.527416 
L 302.2963 148.745796 
L 302.4704 148.421997 
L 302.6445 148.709819 
L 302.8186 148.664847 
L 302.9927 148.988646 
L 303.3409 149.942054 
L 303.6891 150.60764 
L 303.8632 150.409763 
L 304.0373 150.985406 
L 304.2114 150.841495 
L 304.3855 150.850489 
L 304.7337 151.902836 
L 304.9078 151.435126 
L 305.4301 151.91183 
L 305.6042 152.100713 
L 305.7783 152.064735 
L 305.9524 151.650992 
L 306.1265 151.534065 
L 306.3006 151.776914 
L 306.4747 151.76792 
L 306.6488 151.929819 
L 307.1711 150.472724 
L 307.3452 150.454735 
L 307.5193 151.264232 
L 307.8675 150.562668 
L 308.0416 150.103953 
L 308.5639 150.07697 
L 308.738 150.562668 
L 308.9121 150.346802 
L 309.4344 151.615015 
L 309.6085 151.597026 
L 309.7826 151.30021 
L 310.3049 152.29859 
L 310.479 152.370545 
L 310.6531 152.163674 
L 310.8272 152.253618 
L 311.0013 152.703339 
L 311.5236 152.820266 
L 311.6977 153.099093 
L 311.8718 153.773674 
L 312.3941 153.269987 
L 312.5682 153.467864 
L 312.7423 153.234009 
L 312.9164 153.386914 
L 313.4387 154.241384 
L 313.6128 154.169428 
L 313.7869 153.971551 
L 313.961 154.241384 
L 314.3092 153.926579 
L 314.4833 154.515713 
L 314.6574 154.290853 
L 314.8315 154.317836 
L 315.0056 154.556188 
L 315.1797 154.097473 
L 315.5279 154.722585 
L 315.702 154.619149 
L 316.2243 153.962557 
L 316.3984 154.119959 
L 316.5725 153.386914 
L 316.7466 153.980546 
L 316.9207 154.119959 
L 317.0948 153.863618 
L 317.443 154.07049 
L 317.6171 153.243004 
L 317.9653 153.027138 
L 318.1394 153.027138 
L 318.3135 152.595406 
L 318.4876 152.793283 
L 318.8358 152.334568 
L 319.0099 152.550434 
L 319.184 152.352557 
L 319.3581 151.956802 
L 319.5322 151.947808 
L 319.8804 151.372165 
L 320.0545 152.100713 
L 320.2286 151.641998 
L 320.4027 151.704959 
L 320.5768 152.52345 
L 320.925 151.561048 
L 321.0991 151.893841 
L 321.2732 151.812892 
L 321.7955 153.018143 
L 321.9696 153.76468 
L 322.4919 154.268367 
L 322.666 154.853004 
L 322.8401 154.870993 
L 323.0142 154.241384 
L 323.1883 154.236886 
L 323.3624 154.817026 
L 323.7106 155.118339 
L 324.0588 154.803535 
L 324.2329 154.772054 
L 324.407 155.464624 
L 324.5811 155.662501 
L 324.7552 155.469121 
L 324.9293 154.884484 
L 325.2775 155.909847 
L 325.4516 156.121216 
L 325.6257 155.828898 
L 325.9739 156.391049 
L 326.148 155.977306 
L 326.4962 156.094233 
L 326.8444 156.364065 
L 327.0185 156.409037 
L 327.1926 156.894736 
L 327.3667 156.993674 
L 327.5408 156.436021 
L 327.889 156.90373 
L 328.0631 156.813786 
L 328.2372 157.196049 
L 328.4113 157.119596 
L 328.5854 156.881244 
L 328.9336 157.245518 
L 329.1077 157.17806 
L 329.4559 157.803172 
L 329.63 157.173563 
L 329.9782 157.5963 
L 330.1523 157.416412 
L 330.3264 157.5963 
L 330.5005 157.546831 
L 330.8487 158.041524 
L 331.1969 157.798675 
L 331.371 157.542334 
L 331.5451 157.573814 
L 331.8933 157.987557 
L 332.2415 158.189932 
L 332.4156 158.500239 
L 333.112 158.432781 
L 333.2861 157.920099 
L 333.4602 158.189932 
L 333.8084 158.25739 
L 333.9825 158.78806 
L 334.1566 158.815043 
L 334.5048 157.726719 
L 335.0271 158.180937 
L 335.2012 157.947082 
L 335.3753 158.180937 
L 335.7235 158.279876 
L 336.2458 158.875756 
L 336.4199 158.790309 
L 336.594 158.958954 
L 336.7681 158.801552 
L 336.9422 159.341217 
L 337.2904 159.075881 
L 337.4645 159.338968 
L 337.6386 159.278256 
L 337.8127 158.907236 
L 338.1609 158.963451 
L 338.6832 160.292376 
L 338.8573 159.887627 
L 339.0314 160.081007 
L 339.2055 160.006803 
L 339.3796 159.505365 
L 339.9019 159.777446 
L 340.4242 160.717362 
L 340.5983 160.746594 
L 340.7724 160.191189 
L 341.1206 159.941594 
L 341.2947 159.894373 
L 341.6429 161.180574 
L 342.1652 160.564457 
L 342.3393 161.300875 
L 342.6875 160.685882 
L 343.0357 161.386322 
L 343.3839 160.910742 
L 343.558 160.519485 
L 343.7321 160.706119 
L 344.2544 160.566706 
L 344.4285 160.598186 
L 344.7767 161.793319 
L 344.9508 162.134544 
L 345.299 161.640414 
L 345.4731 161.522362 
L 345.6472 161.622425 
L 345.8213 162.301503 
L 345.9954 162.39482 
L 346.1695 162.66915 
L 346.5177 162.235169 
L 346.6918 161.850658 
L 347.2141 162.462841 
L 347.2141 162.462841 
" style="fill:none;stroke:#0000ff;stroke-linecap:square;stroke-width:2.0;"/>
   </g>
   <g id="patch_3">
    <path d="M 33.66 12.96 
L 347.04 12.96 
" style="fill:none;stroke:#000000;stroke-linecap:square;stroke-linejoin:miter;"/>
   </g>
   <g id="patch_4">
    <path d="M 33.66 170.64 
L 33.66 12.96 
" style="fill:none;stroke:#000000;stroke-linecap:square;stroke-linejoin:miter;"/>
   </g>
   <g id="patch_5">
    <path d="M 347.04 170.64 
L 347.04 12.96 
" style="fill:none;stroke:#000000;stroke-linecap:square;stroke-linejoin:miter;"/>
   </g>
   <g id="patch_6">
    <path d="M 33.66 170.64 
L 347.04 170.64 
" style="fill:none;stroke:#000000;stroke-linecap:square;stroke-linejoin:miter;"/>
   </g>
   <g id="matplotlib.axis_1">
    <g id="xtick_1">
     <g id="line2d_2">
      <defs>
       <path d="M 0 0 
L 0 -4 
" id="m27e83a0ad1" style="stroke:#000000;stroke-width:0.5;"/>
      </defs>
      <g>
       <use style="stroke:#000000;stroke-width:0.5;" x="54.552" xlink:href="#m27e83a0ad1" y="170.64"/>
      </g>
     </g>
     <g id="line2d_3">
      <defs>
       <path d="M 0 0 
L 0 4 
" id="m6eedc6a695" style="stroke:#000000;stroke-width:0.5;"/>
      </defs>
      <g>
       <use style="stroke:#000000;stroke-width:0.5;" x="54.552" xlink:href="#m6eedc6a695" y="12.96"/>
      </g>
     </g>
     <g id="text_1">
      <!-- 500 -->
      <defs>
       <path d="M 31.78125 66.40625 
Q 24.171875 66.40625 20.328125 58.90625 
Q 16.5 51.421875 16.5 36.375 
Q 16.5 21.390625 20.328125 13.890625 
Q 24.171875 6.390625 31.78125 6.390625 
Q 39.453125 6.390625 43.28125 13.890625 
Q 47.125 21.390625 47.125 36.375 
Q 47.125 51.421875 43.28125 58.90625 
Q 39.453125 66.40625 31.78125 66.40625 
M 31.78125 74.21875 
Q 44.046875 74.21875 50.515625 64.515625 
Q 56.984375 54.828125 56.984375 36.375 
Q 56.984375 17.96875 50.515625 8.265625 
Q 44.046875 -1.421875 31.78125 -1.421875 
Q 19.53125 -1.421875 13.0625 8.265625 
Q 6.59375 17.96875 6.59375 36.375 
Q 6.59375 54.828125 13.0625 64.515625 
Q 19.53125 74.21875 31.78125 74.21875 
" id="BitstreamVeraSans-Roman-30"/>
       <path d="M 10.796875 72.90625 
L 49.515625 72.90625 
L 49.515625 64.59375 
L 19.828125 64.59375 
L 19.828125 46.734375 
Q 21.96875 47.46875 24.109375 47.828125 
Q 26.265625 48.1875 28.421875 48.1875 
Q 40.625 48.1875 47.75 41.5 
Q 54.890625 34.8125 54.890625 23.390625 
Q 54.890625 11.625 47.5625 5.09375 
Q 40.234375 -1.421875 26.90625 -1.421875 
Q 22.3125 -1.421875 17.546875 -0.640625 
Q 12.796875 0.140625 7.71875 1.703125 
L 7.71875 11.625 
Q 12.109375 9.234375 16.796875 8.0625 
Q 21.484375 6.890625 26.703125 6.890625 
Q 35.15625 6.890625 40.078125 11.328125 
Q 45.015625 15.765625 45.015625 23.390625 
Q 45.015625 31 40.078125 35.4375 
Q 35.15625 39.890625 26.703125 39.890625 
Q 22.75 39.890625 18.8125 39.015625 
Q 14.890625 38.140625 10.796875 36.28125 
z
" id="BitstreamVeraSans-Roman-35"/>
      </defs>
      <g transform="translate(43.0995 183.758125)scale(0.12 -0.12)">
       <use xlink:href="#BitstreamVeraSans-Roman-35"/>
       <use x="63.623046875" xlink:href="#BitstreamVeraSans-Roman-30"/>
       <use x="127.24609375" xlink:href="#BitstreamVeraSans-Roman-30"/>
      </g>
     </g>
    </g>
    <g id="xtick_2">
     <g id="line2d_4">
      <g>
       <use style="stroke:#000000;stroke-width:0.5;" x="124.192" xlink:href="#m27e83a0ad1" y="170.64"/>
      </g>
     </g>
     <g id="line2d_5">
      <g>
       <use style="stroke:#000000;stroke-width:0.5;" x="124.192" xlink:href="#m6eedc6a695" y="12.96"/>
      </g>
     </g>
     <g id="text_2">
      <!-- 600 -->
      <defs>
       <path d="M 33.015625 40.375 
Q 26.375 40.375 22.484375 35.828125 
Q 18.609375 31.296875 18.609375 23.390625 
Q 18.609375 15.53125 22.484375 10.953125 
Q 26.375 6.390625 33.015625 6.390625 
Q 39.65625 6.390625 43.53125 10.953125 
Q 47.40625 15.53125 47.40625 23.390625 
Q 47.40625 31.296875 43.53125 35.828125 
Q 39.65625 40.375 33.015625 40.375 
M 52.59375 71.296875 
L 52.59375 62.3125 
Q 48.875 64.0625 45.09375 64.984375 
Q 41.3125 65.921875 37.59375 65.921875 
Q 27.828125 65.921875 22.671875 59.328125 
Q 17.53125 52.734375 16.796875 39.40625 
Q 19.671875 43.65625 24.015625 45.921875 
Q 28.375 48.1875 33.59375 48.1875 
Q 44.578125 48.1875 50.953125 41.515625 
Q 57.328125 34.859375 57.328125 23.390625 
Q 57.328125 12.15625 50.6875 5.359375 
Q 44.046875 -1.421875 33.015625 -1.421875 
Q 20.359375 -1.421875 13.671875 8.265625 
Q 6.984375 17.96875 6.984375 36.375 
Q 6.984375 53.65625 15.1875 63.9375 
Q 23.390625 74.21875 37.203125 74.21875 
Q 40.921875 74.21875 44.703125 73.484375 
Q 48.484375 72.75 52.59375 71.296875 
" id="BitstreamVeraSans-Roman-36"/>
      </defs>
      <g transform="translate(112.7395 183.758125)scale(0.12 -0.12)">
       <use xlink:href="#BitstreamVeraSans-Roman-36"/>
       <use x="63.623046875" xlink:href="#BitstreamVeraSans-Roman-30"/>
       <use x="127.24609375" xlink:href="#BitstreamVeraSans-Roman-30"/>
      </g>
     </g>
    </g>
    <g id="xtick_3">
     <g id="line2d_6">
      <g>
       <use style="stroke:#000000;stroke-width:0.5;" x="193.832" xlink:href="#m27e83a0ad1" y="170.64"/>
      </g>
     </g>
     <g id="line2d_7">
      <g>
       <use style="stroke:#000000;stroke-width:0.5;" x="193.832" xlink:href="#m6eedc6a695" y="12.96"/>
      </g>
     </g>
     <g id="text_3">
      <!-- 700 -->
      <defs>
       <path d="M 8.203125 72.90625 
L 55.078125 72.90625 
L 55.078125 68.703125 
L 28.609375 0 
L 18.3125 0 
L 43.21875 64.59375 
L 8.203125 64.59375 
z
" id="BitstreamVeraSans-Roman-37"/>
      </defs>
      <g transform="translate(182.3795 183.758125)scale(0.12 -0.12)">
       <use xlink:href="#BitstreamVeraSans-Roman-37"/>
       <use x="63.623046875" xlink:href="#BitstreamVeraSans-Roman-30"/>
       <use x="127.24609375" xlink:href="#BitstreamVeraSans-Roman-30"/>
      </g>
     </g>
    </g>
    <g id="xtick_4">
     <g id="line2d_8">
      <g>
       <use style="stroke:#000000;stroke-width:0.5;" x="263.472" xlink:href="#m27e83a0ad1" y="170.64"/>
      </g>
     </g>
     <g id="line2d_9">
      <g>
       <use style="stroke:#000000;stroke-width:0.5;" x="263.472" xlink:href="#m6eedc6a695" y="12.96"/>
      </g>
     </g>
     <g id="text_4">
      <!-- 800 -->
      <defs>
       <path d="M 31.78125 34.625 
Q 24.75 34.625 20.71875 30.859375 
Q 16.703125 27.09375 16.703125 20.515625 
Q 16.703125 13.921875 20.71875 10.15625 
Q 24.75 6.390625 31.78125 6.390625 
Q 38.8125 6.390625 42.859375 10.171875 
Q 46.921875 13.96875 46.921875 20.515625 
Q 46.921875 27.09375 42.890625 30.859375 
Q 38.875 34.625 31.78125 34.625 
M 21.921875 38.8125 
Q 15.578125 40.375 12.03125 44.71875 
Q 8.5 49.078125 8.5 55.328125 
Q 8.5 64.0625 14.71875 69.140625 
Q 20.953125 74.21875 31.78125 74.21875 
Q 42.671875 74.21875 48.875 69.140625 
Q 55.078125 64.0625 55.078125 55.328125 
Q 55.078125 49.078125 51.53125 44.71875 
Q 48 40.375 41.703125 38.8125 
Q 48.828125 37.15625 52.796875 32.3125 
Q 56.78125 27.484375 56.78125 20.515625 
Q 56.78125 9.90625 50.3125 4.234375 
Q 43.84375 -1.421875 31.78125 -1.421875 
Q 19.734375 -1.421875 13.25 4.234375 
Q 6.78125 9.90625 6.78125 20.515625 
Q 6.78125 27.484375 10.78125 32.3125 
Q 14.796875 37.15625 21.921875 38.8125 
M 18.3125 54.390625 
Q 18.3125 48.734375 21.84375 45.5625 
Q 25.390625 42.390625 31.78125 42.390625 
Q 38.140625 42.390625 41.71875 45.5625 
Q 45.3125 48.734375 45.3125 54.390625 
Q 45.3125 60.0625 41.71875 63.234375 
Q 38.140625 66.40625 31.78125 66.40625 
Q 25.390625 66.40625 21.84375 63.234375 
Q 18.3125 60.0625 18.3125 54.390625 
" id="BitstreamVeraSans-Roman-38"/>
      </defs>
      <g transform="translate(252.0195 183.758125)scale(0.12 -0.12)">
       <use xlink:href="#BitstreamVeraSans-Roman-38"/>
       <use x="63.623046875" xlink:href="#BitstreamVeraSans-Roman-30"/>
       <use x="127.24609375" xlink:href="#BitstreamVeraSans-Roman-30"/>
      </g>
     </g>
    </g>
    <g id="xtick_5">
     <g id="line2d_10">
      <g>
       <use style="stroke:#000000;stroke-width:0.5;" x="333.112" xlink:href="#m27e83a0ad1" y="170.64"/>
      </g>
     </g>
     <g id="line2d_11">
      <g>
       <use style="stroke:#000000;stroke-width:0.5;" x="333.112" xlink:href="#m6eedc6a695" y="12.96"/>
      </g>
     </g>
     <g id="text_5">
      <!-- 900 -->
      <defs>
       <path d="M 10.984375 1.515625 
L 10.984375 10.5 
Q 14.703125 8.734375 18.5 7.8125 
Q 22.3125 6.890625 25.984375 6.890625 
Q 35.75 6.890625 40.890625 13.453125 
Q 46.046875 20.015625 46.78125 33.40625 
Q 43.953125 29.203125 39.59375 26.953125 
Q 35.25 24.703125 29.984375 24.703125 
Q 19.046875 24.703125 12.671875 31.3125 
Q 6.296875 37.9375 6.296875 49.421875 
Q 6.296875 60.640625 12.9375 67.421875 
Q 19.578125 74.21875 30.609375 74.21875 
Q 43.265625 74.21875 49.921875 64.515625 
Q 56.59375 54.828125 56.59375 36.375 
Q 56.59375 19.140625 48.40625 8.859375 
Q 40.234375 -1.421875 26.421875 -1.421875 
Q 22.703125 -1.421875 18.890625 -0.6875 
Q 15.09375 0.046875 10.984375 1.515625 
M 30.609375 32.421875 
Q 37.25 32.421875 41.125 36.953125 
Q 45.015625 41.5 45.015625 49.421875 
Q 45.015625 57.28125 41.125 61.84375 
Q 37.25 66.40625 30.609375 66.40625 
Q 23.96875 66.40625 20.09375 61.84375 
Q 16.21875 57.28125 16.21875 49.421875 
Q 16.21875 41.5 20.09375 36.953125 
Q 23.96875 32.421875 30.609375 32.421875 
" id="BitstreamVeraSans-Roman-39"/>
      </defs>
      <g transform="translate(321.6595 183.758125)scale(0.12 -0.12)">
       <use xlink:href="#BitstreamVeraSans-Roman-39"/>
       <use x="63.623046875" xlink:href="#BitstreamVeraSans-Roman-30"/>
       <use x="127.24609375" xlink:href="#BitstreamVeraSans-Roman-30"/>
      </g>
     </g>
    </g>
    <g id="text_6">
     <!-- Electron energy loss (eV) -->
     <defs>
      <path d="M 44.28125 53.078125 
L 44.28125 44.578125 
Q 40.484375 46.53125 36.375 47.5 
Q 32.28125 48.484375 27.875 48.484375 
Q 21.1875 48.484375 17.84375 46.4375 
Q 14.5 44.390625 14.5 40.28125 
Q 14.5 37.15625 16.890625 35.375 
Q 19.28125 33.59375 26.515625 31.984375 
L 29.59375 31.296875 
Q 39.15625 29.25 43.1875 25.515625 
Q 47.21875 21.78125 47.21875 15.09375 
Q 47.21875 7.46875 41.1875 3.015625 
Q 35.15625 -1.421875 24.609375 -1.421875 
Q 20.21875 -1.421875 15.453125 -0.5625 
Q 10.6875 0.296875 5.421875 2 
L 5.421875 11.28125 
Q 10.40625 8.6875 15.234375 7.390625 
Q 20.0625 6.109375 24.8125 6.109375 
Q 31.15625 6.109375 34.5625 8.28125 
Q 37.984375 10.453125 37.984375 14.40625 
Q 37.984375 18.0625 35.515625 20.015625 
Q 33.0625 21.96875 24.703125 23.78125 
L 21.578125 24.515625 
Q 13.234375 26.265625 9.515625 29.90625 
Q 5.8125 33.546875 5.8125 39.890625 
Q 5.8125 47.609375 11.28125 51.796875 
Q 16.75 56 26.8125 56 
Q 31.78125 56 36.171875 55.265625 
Q 40.578125 54.546875 44.28125 53.078125 
" id="BitstreamVeraSans-Roman-73"/>
      <path d="M 30.609375 48.390625 
Q 23.390625 48.390625 19.1875 42.75 
Q 14.984375 37.109375 14.984375 27.296875 
Q 14.984375 17.484375 19.15625 11.84375 
Q 23.34375 6.203125 30.609375 6.203125 
Q 37.796875 6.203125 41.984375 11.859375 
Q 46.1875 17.53125 46.1875 27.296875 
Q 46.1875 37.015625 41.984375 42.703125 
Q 37.796875 48.390625 30.609375 48.390625 
M 30.609375 56 
Q 42.328125 56 49.015625 48.375 
Q 55.71875 40.765625 55.71875 27.296875 
Q 55.71875 13.875 49.015625 6.21875 
Q 42.328125 -1.421875 30.609375 -1.421875 
Q 18.84375 -1.421875 12.171875 6.21875 
Q 5.515625 13.875 5.515625 27.296875 
Q 5.515625 40.765625 12.171875 48.375 
Q 18.84375 56 30.609375 56 
" id="BitstreamVeraSans-Roman-6f"/>
      <path d="M 9.8125 72.90625 
L 55.90625 72.90625 
L 55.90625 64.59375 
L 19.671875 64.59375 
L 19.671875 43.015625 
L 54.390625 43.015625 
L 54.390625 34.71875 
L 19.671875 34.71875 
L 19.671875 8.296875 
L 56.78125 8.296875 
L 56.78125 0 
L 9.8125 0 
z
" id="BitstreamVeraSans-Roman-45"/>
      <path d="M 31 75.875 
Q 24.46875 64.65625 21.28125 53.65625 
Q 18.109375 42.671875 18.109375 31.390625 
Q 18.109375 20.125 21.3125 9.0625 
Q 24.515625 -2 31 -13.1875 
L 23.1875 -13.1875 
Q 15.875 -1.703125 12.234375 9.375 
Q 8.59375 20.453125 8.59375 31.390625 
Q 8.59375 42.28125 12.203125 53.3125 
Q 15.828125 64.359375 23.1875 75.875 
z
" id="BitstreamVeraSans-Roman-28"/>
      <path d="M 54.890625 33.015625 
L 54.890625 0 
L 45.90625 0 
L 45.90625 32.71875 
Q 45.90625 40.484375 42.875 44.328125 
Q 39.84375 48.1875 33.796875 48.1875 
Q 26.515625 48.1875 22.3125 43.546875 
Q 18.109375 38.921875 18.109375 30.90625 
L 18.109375 0 
L 9.078125 0 
L 9.078125 54.6875 
L 18.109375 54.6875 
L 18.109375 46.1875 
Q 21.34375 51.125 25.703125 53.5625 
Q 30.078125 56 35.796875 56 
Q 45.21875 56 50.046875 50.171875 
Q 54.890625 44.34375 54.890625 33.015625 
" id="BitstreamVeraSans-Roman-6e"/>
      <path d="M 56.203125 29.59375 
L 56.203125 25.203125 
L 14.890625 25.203125 
Q 15.484375 15.921875 20.484375 11.0625 
Q 25.484375 6.203125 34.421875 6.203125 
Q 39.59375 6.203125 44.453125 7.46875 
Q 49.3125 8.734375 54.109375 11.28125 
L 54.109375 2.78125 
Q 49.265625 0.734375 44.1875 -0.34375 
Q 39.109375 -1.421875 33.890625 -1.421875 
Q 20.796875 -1.421875 13.15625 6.1875 
Q 5.515625 13.8125 5.515625 26.8125 
Q 5.515625 40.234375 12.765625 48.109375 
Q 20.015625 56 32.328125 56 
Q 43.359375 56 49.78125 48.890625 
Q 56.203125 41.796875 56.203125 29.59375 
M 47.21875 32.234375 
Q 47.125 39.59375 43.09375 43.984375 
Q 39.0625 48.390625 32.421875 48.390625 
Q 24.90625 48.390625 20.390625 44.140625 
Q 15.875 39.890625 15.1875 32.171875 
z
" id="BitstreamVeraSans-Roman-65"/>
      <path id="BitstreamVeraSans-Roman-20"/>
      <path d="M 48.78125 52.59375 
L 48.78125 44.1875 
Q 44.96875 46.296875 41.140625 47.34375 
Q 37.3125 48.390625 33.40625 48.390625 
Q 24.65625 48.390625 19.8125 42.84375 
Q 14.984375 37.3125 14.984375 27.296875 
Q 14.984375 17.28125 19.8125 11.734375 
Q 24.65625 6.203125 33.40625 6.203125 
Q 37.3125 6.203125 41.140625 7.25 
Q 44.96875 8.296875 48.78125 10.40625 
L 48.78125 2.09375 
Q 45.015625 0.34375 40.984375 -0.53125 
Q 36.96875 -1.421875 32.421875 -1.421875 
Q 20.0625 -1.421875 12.78125 6.34375 
Q 5.515625 14.109375 5.515625 27.296875 
Q 5.515625 40.671875 12.859375 48.328125 
Q 20.21875 56 33.015625 56 
Q 37.15625 56 41.109375 55.140625 
Q 45.0625 54.296875 48.78125 52.59375 
" id="BitstreamVeraSans-Roman-63"/>
      <path d="M 41.109375 46.296875 
Q 39.59375 47.171875 37.8125 47.578125 
Q 36.03125 48 33.890625 48 
Q 26.265625 48 22.1875 43.046875 
Q 18.109375 38.09375 18.109375 28.8125 
L 18.109375 0 
L 9.078125 0 
L 9.078125 54.6875 
L 18.109375 54.6875 
L 18.109375 46.1875 
Q 20.953125 51.171875 25.484375 53.578125 
Q 30.03125 56 36.53125 56 
Q 37.453125 56 38.578125 55.875 
Q 39.703125 55.765625 41.0625 55.515625 
z
" id="BitstreamVeraSans-Roman-72"/>
      <path d="M 18.3125 70.21875 
L 18.3125 54.6875 
L 36.8125 54.6875 
L 36.8125 47.703125 
L 18.3125 47.703125 
L 18.3125 18.015625 
Q 18.3125 11.328125 20.140625 9.421875 
Q 21.96875 7.515625 27.59375 7.515625 
L 36.8125 7.515625 
L 36.8125 0 
L 27.59375 0 
Q 17.1875 0 13.234375 3.875 
Q 9.28125 7.765625 9.28125 18.015625 
L 9.28125 47.703125 
L 2.6875 47.703125 
L 2.6875 54.6875 
L 9.28125 54.6875 
L 9.28125 70.21875 
z
" id="BitstreamVeraSans-Roman-74"/>
      <path d="M 32.171875 -5.078125 
Q 28.375 -14.84375 24.75 -17.8125 
Q 21.140625 -20.796875 15.09375 -20.796875 
L 7.90625 -20.796875 
L 7.90625 -13.28125 
L 13.1875 -13.28125 
Q 16.890625 -13.28125 18.9375 -11.515625 
Q 21 -9.765625 23.484375 -3.21875 
L 25.09375 0.875 
L 2.984375 54.6875 
L 12.5 54.6875 
L 29.59375 11.921875 
L 46.6875 54.6875 
L 56.203125 54.6875 
z
" id="BitstreamVeraSans-Roman-79"/>
      <path d="M 45.40625 27.984375 
Q 45.40625 37.75 41.375 43.109375 
Q 37.359375 48.484375 30.078125 48.484375 
Q 22.859375 48.484375 18.828125 43.109375 
Q 14.796875 37.75 14.796875 27.984375 
Q 14.796875 18.265625 18.828125 12.890625 
Q 22.859375 7.515625 30.078125 7.515625 
Q 37.359375 7.515625 41.375 12.890625 
Q 45.40625 18.265625 45.40625 27.984375 
M 54.390625 6.78125 
Q 54.390625 -7.171875 48.1875 -13.984375 
Q 42 -20.796875 29.203125 -20.796875 
Q 24.46875 -20.796875 20.265625 -20.09375 
Q 16.0625 -19.390625 12.109375 -17.921875 
L 12.109375 -9.1875 
Q 16.0625 -11.328125 19.921875 -12.34375 
Q 23.78125 -13.375 27.78125 -13.375 
Q 36.625 -13.375 41.015625 -8.765625 
Q 45.40625 -4.15625 45.40625 5.171875 
L 45.40625 9.625 
Q 42.625 4.78125 38.28125 2.390625 
Q 33.9375 0 27.875 0 
Q 17.828125 0 11.671875 7.65625 
Q 5.515625 15.328125 5.515625 27.984375 
Q 5.515625 40.671875 11.671875 48.328125 
Q 17.828125 56 27.875 56 
Q 33.9375 56 38.28125 53.609375 
Q 42.625 51.21875 45.40625 46.390625 
L 45.40625 54.6875 
L 54.390625 54.6875 
z
" id="BitstreamVeraSans-Roman-67"/>
      <path d="M 28.609375 0 
L 0.78125 72.90625 
L 11.078125 72.90625 
L 34.1875 11.53125 
L 57.328125 72.90625 
L 67.578125 72.90625 
L 39.796875 0 
z
" id="BitstreamVeraSans-Roman-56"/>
      <path d="M 8.015625 75.875 
L 15.828125 75.875 
Q 23.140625 64.359375 26.78125 53.3125 
Q 30.421875 42.28125 30.421875 31.390625 
Q 30.421875 20.453125 26.78125 9.375 
Q 23.140625 -1.703125 15.828125 -13.1875 
L 8.015625 -13.1875 
Q 14.5 -2 17.703125 9.0625 
Q 20.90625 20.125 20.90625 31.390625 
Q 20.90625 42.671875 17.703125 53.65625 
Q 14.5 64.65625 8.015625 75.875 
" id="BitstreamVeraSans-Roman-29"/>
      <path d="M 9.421875 75.984375 
L 18.40625 75.984375 
L 18.40625 0 
L 9.421875 0 
z
" id="BitstreamVeraSans-Roman-6c"/>
     </defs>
     <g transform="translate(114.81 200.371875)scale(0.12 -0.12)">
      <use xlink:href="#BitstreamVeraSans-Roman-45"/>
      <use x="63.18359375" xlink:href="#BitstreamVeraSans-Roman-6c"/>
      <use x="90.966796875" xlink:href="#BitstreamVeraSans-Roman-65"/>
      <use x="152.490234375" xlink:href="#BitstreamVeraSans-Roman-63"/>
      <use x="207.470703125" xlink:href="#BitstreamVeraSans-Roman-74"/>
      <use x="246.6796875" xlink:href="#BitstreamVeraSans-Roman-72"/>
      <use x="287.76171875" xlink:href="#BitstreamVeraSans-Roman-6f"/>
      <use x="348.943359375" xlink:href="#BitstreamVeraSans-Roman-6e"/>
      <use x="412.322265625" xlink:href="#BitstreamVeraSans-Roman-20"/>
      <use x="444.109375" xlink:href="#BitstreamVeraSans-Roman-65"/>
      <use x="505.6328125" xlink:href="#BitstreamVeraSans-Roman-6e"/>
      <use x="569.01171875" xlink:href="#BitstreamVeraSans-Roman-65"/>
      <use x="630.53515625" xlink:href="#BitstreamVeraSans-Roman-72"/>
      <use x="671.6328125" xlink:href="#BitstreamVeraSans-Roman-67"/>
      <use x="735.109375" xlink:href="#BitstreamVeraSans-Roman-79"/>
      <use x="794.2890625" xlink:href="#BitstreamVeraSans-Roman-20"/>
      <use x="826.076171875" xlink:href="#BitstreamVeraSans-Roman-6c"/>
      <use x="853.859375" xlink:href="#BitstreamVeraSans-Roman-6f"/>
      <use x="915.041015625" xlink:href="#BitstreamVeraSans-Roman-73"/>
      <use x="967.140625" xlink:href="#BitstreamVeraSans-Roman-73"/>
      <use x="1019.240234375" xlink:href="#BitstreamVeraSans-Roman-20"/>
      <use x="1051.02734375" xlink:href="#BitstreamVeraSans-Roman-28"/>
      <use x="1090.041015625" xlink:href="#BitstreamVeraSans-Roman-65"/>
      <use x="1151.564453125" xlink:href="#BitstreamVeraSans-Roman-56"/>
      <use x="1219.97265625" xlink:href="#BitstreamVeraSans-Roman-29"/>
     </g>
    </g>
   </g>
   <g id="matplotlib.axis_2">
    <g id="ytick_1">
     <g id="line2d_12">
      <defs>
       <path d="M 0 0 
L 4 0 
" id="m6644c81a63" style="stroke:#000000;stroke-width:0.5;"/>
      </defs>
      <g>
       <use style="stroke:#000000;stroke-width:0.5;" x="33.66" xlink:href="#m6644c81a63" y="163.271775701"/>
      </g>
     </g>
     <g id="line2d_13">
      <defs>
       <path d="M 0 0 
L -4 0 
" id="m109d8216b1" style="stroke:#000000;stroke-width:0.5;"/>
      </defs>
      <g>
       <use style="stroke:#000000;stroke-width:0.5;" x="347.04" xlink:href="#m109d8216b1" y="163.271775701"/>
      </g>
     </g>
    </g>
    <g id="ytick_2">
     <g id="line2d_14">
      <g>
       <use style="stroke:#000000;stroke-width:0.5;" x="33.66" xlink:href="#m6644c81a63" y="133.798878505"/>
      </g>
     </g>
     <g id="line2d_15">
      <g>
       <use style="stroke:#000000;stroke-width:0.5;" x="347.04" xlink:href="#m109d8216b1" y="133.798878505"/>
      </g>
     </g>
    </g>
    <g id="ytick_3">
     <g id="line2d_16">
      <g>
       <use style="stroke:#000000;stroke-width:0.5;" x="33.66" xlink:href="#m6644c81a63" y="104.325981308"/>
      </g>
     </g>
     <g id="line2d_17">
      <g>
       <use style="stroke:#000000;stroke-width:0.5;" x="347.04" xlink:href="#m109d8216b1" y="104.325981308"/>
      </g>
     </g>
    </g>
    <g id="ytick_4">
     <g id="line2d_18">
      <g>
       <use style="stroke:#000000;stroke-width:0.5;" x="33.66" xlink:href="#m6644c81a63" y="74.8530841121"/>
      </g>
     </g>
     <g id="line2d_19">
      <g>
       <use style="stroke:#000000;stroke-width:0.5;" x="347.04" xlink:href="#m109d8216b1" y="74.8530841121"/>
      </g>
     </g>
    </g>
    <g id="ytick_5">
     <g id="line2d_20">
      <g>
       <use style="stroke:#000000;stroke-width:0.5;" x="33.66" xlink:href="#m6644c81a63" y="45.3801869159"/>
      </g>
     </g>
     <g id="line2d_21">
      <g>
       <use style="stroke:#000000;stroke-width:0.5;" x="347.04" xlink:href="#m109d8216b1" y="45.3801869159"/>
      </g>
     </g>
    </g>
    <g id="ytick_6">
     <g id="line2d_22">
      <g>
       <use style="stroke:#000000;stroke-width:0.5;" x="33.66" xlink:href="#m6644c81a63" y="15.9072897196"/>
      </g>
     </g>
     <g id="line2d_23">
      <g>
       <use style="stroke:#000000;stroke-width:0.5;" x="347.04" xlink:href="#m109d8216b1" y="15.9072897196"/>
      </g>
     </g>
    </g>
    <g id="text_7">
     <!-- Electron counts (#) -->
     <defs>
      <path d="M 51.125 44 
L 36.921875 44 
L 32.8125 27.6875 
L 47.125 27.6875 
z
M 43.796875 71.78125 
L 38.71875 51.515625 
L 52.984375 51.515625 
L 58.109375 71.78125 
L 65.921875 71.78125 
L 60.890625 51.515625 
L 76.125 51.515625 
L 76.125 44 
L 58.984375 44 
L 54.984375 27.6875 
L 70.515625 27.6875 
L 70.515625 20.21875 
L 53.078125 20.21875 
L 48 0 
L 40.1875 0 
L 45.21875 20.21875 
L 30.90625 20.21875 
L 25.875 0 
L 18.015625 0 
L 23.09375 20.21875 
L 7.71875 20.21875 
L 7.71875 27.6875 
L 24.90625 27.6875 
L 29 44 
L 13.28125 44 
L 13.28125 51.515625 
L 30.90625 51.515625 
L 35.890625 71.78125 
z
" id="BitstreamVeraSans-Roman-23"/>
      <path d="M 8.5 21.578125 
L 8.5 54.6875 
L 17.484375 54.6875 
L 17.484375 21.921875 
Q 17.484375 14.15625 20.5 10.265625 
Q 23.53125 6.390625 29.59375 6.390625 
Q 36.859375 6.390625 41.078125 11.03125 
Q 45.3125 15.671875 45.3125 23.6875 
L 45.3125 54.6875 
L 54.296875 54.6875 
L 54.296875 0 
L 45.3125 0 
L 45.3125 8.40625 
Q 42.046875 3.421875 37.71875 1 
Q 33.40625 -1.421875 27.6875 -1.421875 
Q 18.265625 -1.421875 13.375 4.4375 
Q 8.5 10.296875 8.5 21.578125 
" id="BitstreamVeraSans-Roman-75"/>
     </defs>
     <g transform="translate(22.164375 150.11625)rotate(-90.0)scale(0.12 -0.12)">
      <use xlink:href="#BitstreamVeraSans-Roman-45"/>
      <use x="63.18359375" xlink:href="#BitstreamVeraSans-Roman-6c"/>
      <use x="90.966796875" xlink:href="#BitstreamVeraSans-Roman-65"/>
      <use x="152.490234375" xlink:href="#BitstreamVeraSans-Roman-63"/>
      <use x="207.470703125" xlink:href="#BitstreamVeraSans-Roman-74"/>
      <use x="246.6796875" xlink:href="#BitstreamVeraSans-Roman-72"/>
      <use x="287.76171875" xlink:href="#BitstreamVeraSans-Roman-6f"/>
      <use x="348.943359375" xlink:href="#BitstreamVeraSans-Roman-6e"/>
      <use x="412.322265625" xlink:href="#BitstreamVeraSans-Roman-20"/>
      <use x="444.109375" xlink:href="#BitstreamVeraSans-Roman-63"/>
      <use x="499.08984375" xlink:href="#BitstreamVeraSans-Roman-6f"/>
      <use x="560.271484375" xlink:href="#BitstreamVeraSans-Roman-75"/>
      <use x="623.650390625" xlink:href="#BitstreamVeraSans-Roman-6e"/>
      <use x="687.029296875" xlink:href="#BitstreamVeraSans-Roman-74"/>
      <use x="726.23828125" xlink:href="#BitstreamVeraSans-Roman-73"/>
      <use x="778.337890625" xlink:href="#BitstreamVeraSans-Roman-20"/>
      <use x="810.125" xlink:href="#BitstreamVeraSans-Roman-28"/>
      <use x="849.138671875" xlink:href="#BitstreamVeraSans-Roman-23"/>
      <use x="932.927734375" xlink:href="#BitstreamVeraSans-Roman-29"/>
     </g>
    </g>
   </g>
   <g id="text_8">
    <!-- Oxygen -->
    <defs>
     <path d="M 39.40625 66.21875 
Q 28.65625 66.21875 22.328125 58.203125 
Q 16.015625 50.203125 16.015625 36.375 
Q 16.015625 22.609375 22.328125 14.59375 
Q 28.65625 6.59375 39.40625 6.59375 
Q 50.140625 6.59375 56.421875 14.59375 
Q 62.703125 22.609375 62.703125 36.375 
Q 62.703125 50.203125 56.421875 58.203125 
Q 50.140625 66.21875 39.40625 66.21875 
M 39.40625 74.21875 
Q 54.734375 74.21875 63.90625 63.9375 
Q 73.09375 53.65625 73.09375 36.375 
Q 73.09375 19.140625 63.90625 8.859375 
Q 54.734375 -1.421875 39.40625 -1.421875 
Q 24.03125 -1.421875 14.8125 8.828125 
Q 5.609375 19.09375 5.609375 36.375 
Q 5.609375 53.65625 14.8125 63.9375 
Q 24.03125 74.21875 39.40625 74.21875 
" id="BitstreamVeraSans-Roman-4f"/>
     <path d="M 54.890625 54.6875 
L 35.109375 28.078125 
L 55.90625 0 
L 45.3125 0 
L 29.390625 21.484375 
L 13.484375 0 
L 2.875 0 
L 24.125 28.609375 
L 4.6875 54.6875 
L 15.28125 54.6875 
L 29.78125 35.203125 
L 44.28125 54.6875 
z
" id="BitstreamVeraSans-Roman-78"/>
    </defs>
    <g transform="translate(61.516 54.0474848131)scale(0.12 -0.12)">
     <use xlink:href="#BitstreamVeraSans-Roman-4f"/>
     <use x="78.7109375" xlink:href="#BitstreamVeraSans-Roman-78"/>
     <use x="137.890625" xlink:href="#BitstreamVeraSans-Roman-79"/>
     <use x="197.0703125" xlink:href="#BitstreamVeraSans-Roman-67"/>
     <use x="260.546875" xlink:href="#BitstreamVeraSans-Roman-65"/>
     <use x="322.0703125" xlink:href="#BitstreamVeraSans-Roman-6e"/>
    </g>
    <!-- K-edge -->
    <defs>
     <path d="M 4.890625 31.390625 
L 31.203125 31.390625 
L 31.203125 23.390625 
L 4.890625 23.390625 
z
" id="BitstreamVeraSans-Roman-2d"/>
     <path d="M 9.8125 72.90625 
L 19.671875 72.90625 
L 19.671875 42.09375 
L 52.390625 72.90625 
L 65.09375 72.90625 
L 28.90625 38.921875 
L 67.671875 0 
L 54.6875 0 
L 19.671875 35.109375 
L 19.671875 0 
L 9.8125 0 
z
" id="BitstreamVeraSans-Roman-4b"/>
     <path d="M 45.40625 46.390625 
L 45.40625 75.984375 
L 54.390625 75.984375 
L 54.390625 0 
L 45.40625 0 
L 45.40625 8.203125 
Q 42.578125 3.328125 38.25 0.953125 
Q 33.9375 -1.421875 27.875 -1.421875 
Q 17.96875 -1.421875 11.734375 6.484375 
Q 5.515625 14.40625 5.515625 27.296875 
Q 5.515625 40.1875 11.734375 48.09375 
Q 17.96875 56 27.875 56 
Q 33.9375 56 38.25 53.625 
Q 42.578125 51.265625 45.40625 46.390625 
M 14.796875 27.296875 
Q 14.796875 17.390625 18.875 11.75 
Q 22.953125 6.109375 30.078125 6.109375 
Q 37.203125 6.109375 41.296875 11.75 
Q 45.40625 17.390625 45.40625 27.296875 
Q 45.40625 37.203125 41.296875 42.84375 
Q 37.203125 48.484375 30.078125 48.484375 
Q 22.953125 48.484375 18.875 42.84375 
Q 14.796875 37.203125 14.796875 27.296875 
" id="BitstreamVeraSans-Roman-64"/>
    </defs>
    <g transform="translate(61.516 67.4848598131)scale(0.12 -0.12)">
     <use xlink:href="#BitstreamVeraSans-Roman-4b"/>
     <use x="65.419921875" xlink:href="#BitstreamVeraSans-Roman-2d"/>
     <use x="101.50390625" xlink:href="#BitstreamVeraSans-Roman-65"/>
     <use x="163.02734375" xlink:href="#BitstreamVeraSans-Roman-64"/>
     <use x="226.50390625" xlink:href="#BitstreamVeraSans-Roman-67"/>
     <use x="289.98046875" xlink:href="#BitstreamVeraSans-Roman-65"/>
    </g>
   </g>
   <g id="text_9">
    <!-- Manganese -->
    <defs>
     <path d="M 9.8125 72.90625 
L 24.515625 72.90625 
L 43.109375 23.296875 
L 61.8125 72.90625 
L 76.515625 72.90625 
L 76.515625 0 
L 66.890625 0 
L 66.890625 64.015625 
L 48.09375 14.015625 
L 38.1875 14.015625 
L 19.390625 64.015625 
L 19.390625 0 
L 9.8125 0 
z
" id="BitstreamVeraSans-Roman-4d"/>
     <path d="M 34.28125 27.484375 
Q 23.390625 27.484375 19.1875 25 
Q 14.984375 22.515625 14.984375 16.5 
Q 14.984375 11.71875 18.140625 8.90625 
Q 21.296875 6.109375 26.703125 6.109375 
Q 34.1875 6.109375 38.703125 11.40625 
Q 43.21875 16.703125 43.21875 25.484375 
L 43.21875 27.484375 
z
M 52.203125 31.203125 
L 52.203125 0 
L 43.21875 0 
L 43.21875 8.296875 
Q 40.140625 3.328125 35.546875 0.953125 
Q 30.953125 -1.421875 24.3125 -1.421875 
Q 15.921875 -1.421875 10.953125 3.296875 
Q 6 8.015625 6 15.921875 
Q 6 25.140625 12.171875 29.828125 
Q 18.359375 34.515625 30.609375 34.515625 
L 43.21875 34.515625 
L 43.21875 35.40625 
Q 43.21875 41.609375 39.140625 45 
Q 35.0625 48.390625 27.6875 48.390625 
Q 23 48.390625 18.546875 47.265625 
Q 14.109375 46.140625 10.015625 43.890625 
L 10.015625 52.203125 
Q 14.9375 54.109375 19.578125 55.046875 
Q 24.21875 56 28.609375 56 
Q 40.484375 56 46.34375 49.84375 
Q 52.203125 43.703125 52.203125 31.203125 
" id="BitstreamVeraSans-Roman-61"/>
    </defs>
    <g transform="translate(134.638 36.3374964953)scale(0.12 -0.12)">
     <use xlink:href="#BitstreamVeraSans-Roman-4d"/>
     <use x="86.279296875" xlink:href="#BitstreamVeraSans-Roman-61"/>
     <use x="147.55859375" xlink:href="#BitstreamVeraSans-Roman-6e"/>
     <use x="210.9375" xlink:href="#BitstreamVeraSans-Roman-67"/>
     <use x="274.4140625" xlink:href="#BitstreamVeraSans-Roman-61"/>
     <use x="335.693359375" xlink:href="#BitstreamVeraSans-Roman-6e"/>
     <use x="399.072265625" xlink:href="#BitstreamVeraSans-Roman-65"/>
     <use x="460.595703125" xlink:href="#BitstreamVeraSans-Roman-73"/>
     <use x="512.6953125" xlink:href="#BitstreamVeraSans-Roman-65"/>
    </g>
    <!-- L$_{\mathregular{23}}$-edge -->
    <defs>
     <path d="M 9.8125 72.90625 
L 19.671875 72.90625 
L 19.671875 8.296875 
L 55.171875 8.296875 
L 55.171875 0 
L 9.8125 0 
z
" id="BitstreamVeraSans-Roman-4c"/>
     <path d="M 19.1875 8.296875 
L 53.609375 8.296875 
L 53.609375 0 
L 7.328125 0 
L 7.328125 8.296875 
Q 12.9375 14.109375 22.625 23.890625 
Q 32.328125 33.6875 34.8125 36.53125 
Q 39.546875 41.84375 41.421875 45.53125 
Q 43.3125 49.21875 43.3125 52.78125 
Q 43.3125 58.59375 39.234375 62.25 
Q 35.15625 65.921875 28.609375 65.921875 
Q 23.96875 65.921875 18.8125 64.3125 
Q 13.671875 62.703125 7.8125 59.421875 
L 7.8125 69.390625 
Q 13.765625 71.78125 18.9375 73 
Q 24.125 74.21875 28.421875 74.21875 
Q 39.75 74.21875 46.484375 68.546875 
Q 53.21875 62.890625 53.21875 53.421875 
Q 53.21875 48.921875 51.53125 44.890625 
Q 49.859375 40.875 45.40625 35.40625 
Q 44.1875 33.984375 37.640625 27.21875 
Q 31.109375 20.453125 19.1875 8.296875 
" id="BitstreamVeraSans-Roman-32"/>
     <path d="M 40.578125 39.3125 
Q 47.65625 37.796875 51.625 33 
Q 55.609375 28.21875 55.609375 21.1875 
Q 55.609375 10.40625 48.1875 4.484375 
Q 40.765625 -1.421875 27.09375 -1.421875 
Q 22.515625 -1.421875 17.65625 -0.515625 
Q 12.796875 0.390625 7.625 2.203125 
L 7.625 11.71875 
Q 11.71875 9.328125 16.59375 8.109375 
Q 21.484375 6.890625 26.8125 6.890625 
Q 36.078125 6.890625 40.9375 10.546875 
Q 45.796875 14.203125 45.796875 21.1875 
Q 45.796875 27.640625 41.28125 31.265625 
Q 36.765625 34.90625 28.71875 34.90625 
L 20.21875 34.90625 
L 20.21875 43.015625 
L 29.109375 43.015625 
Q 36.375 43.015625 40.234375 45.921875 
Q 44.09375 48.828125 44.09375 54.296875 
Q 44.09375 59.90625 40.109375 62.90625 
Q 36.140625 65.921875 28.71875 65.921875 
Q 24.65625 65.921875 20.015625 65.03125 
Q 15.375 64.15625 9.8125 62.3125 
L 9.8125 71.09375 
Q 15.4375 72.65625 20.34375 73.4375 
Q 25.25 74.21875 29.59375 74.21875 
Q 40.828125 74.21875 47.359375 69.109375 
Q 53.90625 64.015625 53.90625 55.328125 
Q 53.90625 49.265625 50.4375 45.09375 
Q 46.96875 40.921875 40.578125 39.3125 
" id="BitstreamVeraSans-Roman-33"/>
    </defs>
    <g transform="translate(134.638 49.7771214953)scale(0.12 -0.12)">
     <use transform="translate(0.0 0.015625)" xlink:href="#BitstreamVeraSans-Roman-4c"/>
     <use transform="translate(58.032734375 -8.821875000000006)scale(0.7)" xlink:href="#BitstreamVeraSans-Roman-32"/>
     <use transform="translate(102.56886718749999 -8.821875000000006)scale(0.7)" xlink:href="#BitstreamVeraSans-Roman-33"/>
     <use transform="translate(150.4190625 0.015625)" xlink:href="#BitstreamVeraSans-Roman-2d"/>
     <use transform="translate(186.503046875 0.015625)" xlink:href="#BitstreamVeraSans-Roman-65"/>
     <use transform="translate(248.026484375 0.015625)" xlink:href="#BitstreamVeraSans-Roman-64"/>
     <use transform="translate(311.503046875 0.015625)" xlink:href="#BitstreamVeraSans-Roman-67"/>
     <use transform="translate(374.979609375 0.015625)" xlink:href="#BitstreamVeraSans-Roman-65"/>
    </g>
   </g>
   <g id="text_10">
    <!-- Lanthanum -->
    <defs>
     <path d="M 52 44.1875 
Q 55.375 50.25 60.0625 53.125 
Q 64.75 56 71.09375 56 
Q 79.640625 56 84.28125 50.015625 
Q 88.921875 44.046875 88.921875 33.015625 
L 88.921875 0 
L 79.890625 0 
L 79.890625 32.71875 
Q 79.890625 40.578125 77.09375 44.375 
Q 74.3125 48.1875 68.609375 48.1875 
Q 61.625 48.1875 57.5625 43.546875 
Q 53.515625 38.921875 53.515625 30.90625 
L 53.515625 0 
L 44.484375 0 
L 44.484375 32.71875 
Q 44.484375 40.625 41.703125 44.40625 
Q 38.921875 48.1875 33.109375 48.1875 
Q 26.21875 48.1875 22.15625 43.53125 
Q 18.109375 38.875 18.109375 30.90625 
L 18.109375 0 
L 9.078125 0 
L 9.078125 54.6875 
L 18.109375 54.6875 
L 18.109375 46.1875 
Q 21.1875 51.21875 25.484375 53.609375 
Q 29.78125 56 35.6875 56 
Q 41.65625 56 45.828125 52.96875 
Q 50 49.953125 52 44.1875 
" id="BitstreamVeraSans-Roman-6d"/>
     <path d="M 54.890625 33.015625 
L 54.890625 0 
L 45.90625 0 
L 45.90625 32.71875 
Q 45.90625 40.484375 42.875 44.328125 
Q 39.84375 48.1875 33.796875 48.1875 
Q 26.515625 48.1875 22.3125 43.546875 
Q 18.109375 38.921875 18.109375 30.90625 
L 18.109375 0 
L 9.078125 0 
L 9.078125 75.984375 
L 18.109375 75.984375 
L 18.109375 46.1875 
Q 21.34375 51.125 25.703125 53.5625 
Q 30.078125 56 35.796875 56 
Q 45.21875 56 50.046875 50.171875 
Q 54.890625 44.34375 54.890625 33.015625 
" id="BitstreamVeraSans-Roman-68"/>
    </defs>
    <g transform="translate(214.724 90.8623563084)scale(0.12 -0.12)">
     <use xlink:href="#BitstreamVeraSans-Roman-4c"/>
     <use x="55.712890625" xlink:href="#BitstreamVeraSans-Roman-61"/>
     <use x="116.9921875" xlink:href="#BitstreamVeraSans-Roman-6e"/>
     <use x="180.37109375" xlink:href="#BitstreamVeraSans-Roman-74"/>
     <use x="219.580078125" xlink:href="#BitstreamVeraSans-Roman-68"/>
     <use x="282.958984375" xlink:href="#BitstreamVeraSans-Roman-61"/>
     <use x="344.23828125" xlink:href="#BitstreamVeraSans-Roman-6e"/>
     <use x="407.6171875" xlink:href="#BitstreamVeraSans-Roman-75"/>
     <use x="470.99609375" xlink:href="#BitstreamVeraSans-Roman-6d"/>
    </g>
    <!-- M$_{\mathregular{45}}$-edge -->
    <defs>
     <path d="M 37.796875 64.3125 
L 12.890625 25.390625 
L 37.796875 25.390625 
z
M 35.203125 72.90625 
L 47.609375 72.90625 
L 47.609375 25.390625 
L 58.015625 25.390625 
L 58.015625 17.1875 
L 47.609375 17.1875 
L 47.609375 0 
L 37.796875 0 
L 37.796875 17.1875 
L 4.890625 17.1875 
L 4.890625 26.703125 
z
" id="BitstreamVeraSans-Roman-34"/>
    </defs>
    <g transform="translate(214.724 104.301981308)scale(0.12 -0.12)">
     <use transform="translate(0.0 0.015625)" xlink:href="#BitstreamVeraSans-Roman-4d"/>
     <use transform="translate(88.599140625 -8.821875000000006)scale(0.7)" xlink:href="#BitstreamVeraSans-Roman-34"/>
     <use transform="translate(133.1352734375 -8.821875000000006)scale(0.7)" xlink:href="#BitstreamVeraSans-Roman-35"/>
     <use transform="translate(180.98546875 0.015625)" xlink:href="#BitstreamVeraSans-Roman-2d"/>
     <use transform="translate(217.069453125 0.015625)" xlink:href="#BitstreamVeraSans-Roman-65"/>
     <use transform="translate(278.592890625 0.015625)" xlink:href="#BitstreamVeraSans-Roman-64"/>
     <use transform="translate(342.069453125 0.015625)" xlink:href="#BitstreamVeraSans-Roman-67"/>
     <use transform="translate(405.546015625 0.015625)" xlink:href="#BitstreamVeraSans-Roman-65"/>
    </g>
   </g>
  </g>
 </g>
 <defs>
  <clipPath id="p95e3473bde">
   <rect height="157.68" width="313.38" x="33.66" y="12.96"/>
  </clipPath>
 </defs>
</svg>
