<?xml version="1.0" encoding="utf-8" standalone="no"?>
<!DOCTYPE svg PUBLIC "-//W3C//DTD SVG 1.1//EN"
  "http://www.w3.org/Graphics/SVG/1.1/DTD/svg11.dtd">
<!-- Created with matplotlib (http://matplotlib.org/) -->
<svg height="216pt" version="1.1" viewBox="0 0 360 216" width="360pt" xmlns="http://www.w3.org/2000/svg" xmlns:xlink="http://www.w3.org/1999/xlink">
 <defs>
  <style type="text/css">
*{stroke-linecap:butt;stroke-linejoin:round;stroke-miterlimit:100000;}
  </style>
 </defs>
 <g id="figure_1">
  <g id="patch_1">
   <path d="M 0 216 
L 360 216 
L 360 0 
L 0 0 
z
" style="fill:#ffffff;"/>
  </g>
  <g id="axes_1">
   <g id="patch_2">
    <path d="M 33.66 170.64 
L 347.04 170.64 
L 347.04 12.96 
L 33.66 12.96 
z
" style="fill:#ffffff;"/>
   </g>
   <g id="line2d_1">
    <path clip-path="url(#p8cf592a10e)" d="M 33.459115 170.429209 
L 34.061769 170.593485 
L 34.664423 170.768077 
L 35.267077 170.614517 
L 36.070615 170.704517 
L 37.075038 170.725612 
L 37.878577 170.510328 
L 38.883 170.588312 
L 40.289192 170.258976 
L 42.498923 170.404579 
L 43.302462 169.981736 
L 43.503346 169.689157 
L 43.704231 169.127959 
L 43.905115 168.06245 
L 44.106 166.051775 
L 44.306885 162.518205 
L 44.708654 148.954847 
L 44.909538 137.298881 
L 45.110423 118.923822 
L 45.713077 20.468571 
L 45.913962 41.842631 
L 46.315731 121.659852 
L 46.7175 152.456885 
L 47.119269 163.251947 
L 47.521038 166.797704 
L 47.721923 167.328505 
L 48.123692 167.55568 
L 48.726346 167.465848 
L 49.128115 167.270598 
L 49.529885 166.699764 
L 50.534308 164.914324 
L 50.936077 164.55003 
L 51.136962 164.566955 
L 51.538731 165.216489 
L 51.9405 165.909867 
L 52.342269 166.169509 
L 52.944923 165.900407 
L 53.748462 165.483964 
L 54.351115 165.436984 
L 54.752885 165.40467 
L 55.154654 165.203798 
L 55.556423 164.749029 
L 56.159077 163.202643 
L 57.1635 159.934525 
L 57.364385 159.807356 
L 57.565269 160.010142 
L 57.967038 161.057337 
L 58.770577 163.360085 
L 59.373231 164.38973 
L 59.775 164.805401 
L 60.578538 165.122642 
L 62.3865 165.061316 
L 63.190038 164.725679 
L 63.993577 164.930707 
L 64.998 165.417803 
L 65.600654 165.880932 
L 66.605077 166.457306 
L 67.006846 166.80871 
L 68.413038 167.238134 
L 69.216577 167.627123 
L 70.622769 167.87535 
L 71.426308 168.332129 
L 72.229846 168.190011 
L 72.8325 168.07469 
L 73.234269 168.070221 
L 73.636038 168.028135 
L 74.439577 168.287185 
L 75.444 168.628848 
L 76.247538 168.626974 
L 76.649308 168.66449 
L 77.051077 168.819501 
L 79.260808 168.823053 
L 79.863462 169.040116 
L 80.867885 169.04289 
L 81.872308 169.218269 
L 82.274077 169.227526 
L 82.675846 169.296236 
L 84.684692 169.335302 
L 85.086462 169.435504 
L 85.89 169.39651 
L 86.492654 169.299249 
L 87.095308 169.48749 
L 87.697962 169.595568 
L 88.300615 169.612138 
L 89.305038 169.821804 
L 90.108577 169.611267 
L 90.711231 169.69805 
L 91.313885 169.886907 
L 92.720077 170.073226 
L 93.322731 170.155269 
L 95.331577 169.926974 
L 95.934231 169.813434 
L 98.143962 169.88962 
L 98.545731 169.944064 
L 99.550154 170.278707 
L 99.951923 170.213777 
L 100.353692 170.077576 
L 101.358115 170.324726 
L 102.362538 170.179788 
L 102.764308 170.130388 
L 104.974038 170.149773 
L 106.179346 169.954276 
L 106.982885 169.946915 
L 107.585538 170.144916 
L 107.987308 170.321441 
L 108.790846 170.258453 
L 110.799692 170.059116 
L 111.804115 170.394397 
L 112.406769 170.287202 
L 112.808538 170.15708 
L 115.821808 170.518024 
L 117.027115 170.353394 
L 117.428885 170.299551 
L 117.830654 170.223446 
L 118.835077 170.295715 
L 120.040385 170.628724 
L 121.044808 170.577131 
L 121.848346 170.406828 
L 122.451 170.317395 
L 123.455423 170.220566 
L 126.870462 170.338797 
L 127.674 170.097398 
L 128.276654 170.176518 
L 129.080192 170.265735 
L 130.687269 170.500836 
L 131.089038 170.57877 
L 131.691692 170.448117 
L 132.093462 170.293998 
L 133.298769 170.438237 
L 135.307615 169.93322 
L 136.512923 170.480673 
L 137.517346 170.010756 
L 138.722654 170.19913 
L 139.124423 170.185471 
L 140.128846 170.389818 
L 145.552731 170.392446 
L 146.557154 170.545451 
L 147.360692 170.41858 
L 148.164231 170.243743 
L 148.566 170.219734 
L 149.369538 170.533532 
L 149.771308 170.750182 
L 150.173077 170.676708 
L 151.1775 170.3268 
L 151.981038 170.394965 
L 152.985462 170.387933 
L 153.588115 170.345071 
L 153.989885 170.387798 
L 154.391654 170.429457 
L 155.596962 170.285253 
L 156.199615 170.398129 
L 157.003154 170.258288 
L 157.605808 170.351812 
L 158.208462 170.66941 
L 158.610231 170.678535 
L 159.815538 170.328564 
L 161.221731 170.480132 
L 162.627923 170.141387 
L 163.632346 170.439793 
L 164.235 170.532503 
L 164.636769 170.413221 
L 165.239423 170.260496 
L 165.641192 170.213814 
L 166.8465 170.499224 
L 167.650038 170.328597 
L 169.859769 170.190454 
L 171.466846 170.432407 
L 171.868615 170.505769 
L 172.270385 170.478883 
L 172.672154 170.567836 
L 173.274808 170.539497 
L 175.283654 170.414094 
L 176.488962 170.362943 
L 177.091615 170.379701 
L 177.694269 170.281563 
L 178.296923 170.378405 
L 178.698692 170.533681 
L 180.104885 170.446204 
L 180.707538 170.442899 
L 183.921692 170.440853 
L 184.524346 170.488699 
L 185.327885 170.319664 
L 185.729654 170.286476 
L 186.934962 170.589901 
L 188.341154 170.495979 
L 189.144692 170.396487 
L 189.747346 170.482242 
L 190.149115 170.595195 
L 191.756192 170.469683 
L 193.363269 170.711728 
L 194.769462 170.580154 
L 195.171231 170.61893 
L 195.773885 170.565052 
L 196.175654 170.379658 
L 196.979192 170.393087 
L 198.586269 170.500625 
L 199.389808 170.653439 
L 199.791577 170.733146 
L 201.800423 170.331049 
L 204.813692 170.525891 
L 206.019 170.418164 
L 207.023423 170.746504 
L 207.626077 170.74427 
L 208.027846 170.510805 
L 210.036692 170.590133 
L 210.840231 170.427283 
L 211.844654 170.795762 
L 212.246423 170.813449 
L 213.451731 170.663724 
L 214.054385 170.737448 
L 214.857923 170.62984 
L 215.862346 170.787021 
L 216.264115 170.848459 
L 217.670308 170.841004 
L 219.478269 170.774743 
L 220.080923 170.604523 
L 220.683577 170.616267 
L 221.085346 170.824863 
L 221.688 170.795618 
L 222.491538 170.673224 
L 223.094192 170.804778 
L 224.098615 170.656139 
L 224.902154 170.756997 
L 225.303923 170.658058 
L 226.509231 170.68507 
L 227.312769 170.515164 
L 227.915423 170.714883 
L 229.120731 170.664105 
L 229.5225 170.720288 
L 230.727808 170.651816 
L 232.334885 170.894251 
L 234.343731 170.608661 
L 235.348154 170.657748 
L 236.151692 170.412155 
L 236.955231 170.617747 
L 237.959654 170.645214 
L 238.361423 170.705708 
L 239.164962 170.552977 
L 239.767615 170.696893 
L 240.370269 170.738792 
L 245.1915 170.582215 
L 245.593269 170.548862 
L 245.995038 170.611005 
L 247.803 170.599106 
L 248.405654 170.529976 
L 249.008308 170.411127 
L 249.610962 170.558694 
L 250.213615 170.628286 
L 251.017154 170.718624 
L 251.418923 170.746378 
L 252.021577 170.630565 
L 252.624231 170.66228 
L 253.026 170.788911 
L 254.231308 170.577044 
L 256.039269 170.768985 
L 258.650769 170.759795 
L 259.052538 170.771468 
L 259.856077 170.381231 
L 260.257846 170.443768 
L 260.8605 170.634449 
L 261.664038 170.638293 
L 262.266692 170.62769 
L 263.271115 170.935355 
L 263.672885 170.857824 
L 264.878192 170.462342 
L 265.681731 170.527675 
L 266.686154 170.976435 
L 268.293231 170.597661 
L 268.695 170.512685 
L 269.900308 170.678485 
L 270.302077 170.582938 
L 271.105615 170.684251 
L 272.110038 170.895248 
L 272.913577 170.915082 
L 273.315346 170.713215 
L 273.918 170.482521 
L 274.319769 170.572479 
L 274.721538 170.721924 
L 275.324192 170.667933 
L 275.725962 170.567764 
L 276.931269 170.792991 
L 277.533923 170.683944 
L 278.337462 170.76778 
L 278.940115 170.695802 
L 279.341885 170.601326 
L 280.346308 170.721118 
L 280.948962 170.754474 
L 282.154269 170.575938 
L 283.560462 170.837771 
L 284.765769 170.767523 
L 285.971077 170.601501 
L 286.774615 170.629481 
L 287.578154 170.632903 
L 287.979923 170.585853 
L 288.984346 170.840515 
L 289.587 170.932335 
L 290.792308 170.729474 
L 291.595846 170.892697 
L 292.1985 170.924731 
L 293.805577 170.755713 
L 294.408231 170.823006 
L 295.412654 170.464394 
L 296.818846 170.765259 
L 298.024154 170.677378 
L 299.229462 170.608342 
L 300.434769 170.675397 
L 301.238308 170.598323 
L 302.6445 170.731496 
L 304.251577 170.672474 
L 304.653346 170.628762 
L 306.260423 170.86114 
L 306.662192 170.814559 
L 307.264846 170.632948 
L 308.671038 170.564255 
L 310.077231 170.556847 
L 310.880769 170.511038 
L 312.086077 170.732448 
L 312.688731 170.842259 
L 313.291385 170.809936 
L 313.894038 170.732034 
L 315.501115 170.962055 
L 316.706423 170.601647 
L 318.3135 170.750114 
L 321.326769 170.629148 
L 322.532077 170.894064 
L 323.5365 170.906896 
L 324.139154 170.785752 
L 325.344462 170.938112 
L 326.549769 170.76732 
L 328.558615 170.954493 
L 328.960385 171.154594 
L 329.763923 171.029757 
L 330.366577 170.760816 
L 332.174538 170.685376 
L 332.777192 170.688702 
L 333.379846 170.62287 
L 334.183385 170.556914 
L 334.786038 170.658865 
L 335.388692 170.625172 
L 335.790462 170.610763 
L 336.594 170.79697 
L 337.397538 170.692789 
L 339.2055 170.986886 
L 340.209923 170.686773 
L 341.013462 170.53935 
L 341.415231 170.459663 
L 342.419654 170.821856 
L 343.223192 170.76311 
L 343.624962 170.705153 
L 345.834692 170.781074 
L 346.638231 170.615849 
L 347.240885 170.663099 
L 347.240885 170.663099 
" style="fill:none;stroke:#0000ff;stroke-linecap:square;stroke-width:2.0;"/>
   </g>
   <g id="line2d_2">
    <path clip-path="url(#p8cf592a10e)" d="M 184.074069 99 
L 274.721538 170.64 
" style="fill:none;opacity:0.4;stroke:#000000;stroke-linecap:square;stroke-width:2.0;"/>
   </g>
   <g id="line2d_3">
    <path clip-path="url(#p8cf592a10e)" d="M 338.915931 99 
L 326.951538 170.64 
" style="fill:none;opacity:0.4;stroke:#000000;stroke-linecap:square;stroke-width:2.0;"/>
   </g>
   <g id="patch_3">
    <path d="M 33.66 170.64 
L 33.66 12.96 
" style="fill:none;stroke:#000000;stroke-linecap:square;stroke-linejoin:miter;"/>
   </g>
   <g id="patch_4">
    <path d="M 33.66 12.96 
L 347.04 12.96 
" style="fill:none;stroke:#000000;stroke-linecap:square;stroke-linejoin:miter;"/>
   </g>
   <g id="patch_5">
    <path d="M 347.04 170.64 
L 347.04 12.96 
" style="fill:none;stroke:#000000;stroke-linecap:square;stroke-linejoin:miter;"/>
   </g>
   <g id="patch_6">
    <path d="M 33.66 170.64 
L 347.04 170.64 
" style="fill:none;stroke:#000000;stroke-linecap:square;stroke-linejoin:miter;"/>
   </g>
   <g id="matplotlib.axis_1">
    <g id="xtick_1">
     <g id="line2d_4">
      <defs>
       <path d="M 0 0 
L 0 -4 
" id="mb3e0011d48" style="stroke:#000000;stroke-width:0.5;"/>
      </defs>
      <g>
       <use style="stroke:#000000;stroke-width:0.5;" x="45.7130769231" xlink:href="#mb3e0011d48" y="170.64"/>
      </g>
     </g>
     <g id="line2d_5">
      <defs>
       <path d="M 0 0 
L 0 4 
" id="m6794db79e9" style="stroke:#000000;stroke-width:0.5;"/>
      </defs>
      <g>
       <use style="stroke:#000000;stroke-width:0.5;" x="45.7130769231" xlink:href="#m6794db79e9" y="12.96"/>
      </g>
     </g>
     <g id="text_1">
      <!-- 0 -->
      <defs>
       <path d="M 31.78125 66.40625 
Q 24.171875 66.40625 20.328125 58.90625 
Q 16.5 51.421875 16.5 36.375 
Q 16.5 21.390625 20.328125 13.890625 
Q 24.171875 6.390625 31.78125 6.390625 
Q 39.453125 6.390625 43.28125 13.890625 
Q 47.125 21.390625 47.125 36.375 
Q 47.125 51.421875 43.28125 58.90625 
Q 39.453125 66.40625 31.78125 66.40625 
M 31.78125 74.21875 
Q 44.046875 74.21875 50.515625 64.515625 
Q 56.984375 54.828125 56.984375 36.375 
Q 56.984375 17.96875 50.515625 8.265625 
Q 44.046875 -1.421875 31.78125 -1.421875 
Q 19.53125 -1.421875 13.0625 8.265625 
Q 6.59375 17.96875 6.59375 36.375 
Q 6.59375 54.828125 13.0625 64.515625 
Q 19.53125 74.21875 31.78125 74.21875 
" id="BitstreamVeraSans-Roman-30"/>
      </defs>
      <g transform="translate(41.8955769231 183.758125)scale(0.12 -0.12)">
       <use xlink:href="#BitstreamVeraSans-Roman-30"/>
      </g>
     </g>
    </g>
    <g id="xtick_2">
     <g id="line2d_6">
      <g>
       <use style="stroke:#000000;stroke-width:0.5;" x="85.89" xlink:href="#mb3e0011d48" y="170.64"/>
      </g>
     </g>
     <g id="line2d_7">
      <g>
       <use style="stroke:#000000;stroke-width:0.5;" x="85.89" xlink:href="#m6794db79e9" y="12.96"/>
      </g>
     </g>
     <g id="text_2">
      <!-- 100 -->
      <defs>
       <path d="M 12.40625 8.296875 
L 28.515625 8.296875 
L 28.515625 63.921875 
L 10.984375 60.40625 
L 10.984375 69.390625 
L 28.421875 72.90625 
L 38.28125 72.90625 
L 38.28125 8.296875 
L 54.390625 8.296875 
L 54.390625 0 
L 12.40625 0 
z
" id="BitstreamVeraSans-Roman-31"/>
      </defs>
      <g transform="translate(74.4375 183.758125)scale(0.12 -0.12)">
       <use xlink:href="#BitstreamVeraSans-Roman-31"/>
       <use x="63.623046875" xlink:href="#BitstreamVeraSans-Roman-30"/>
       <use x="127.24609375" xlink:href="#BitstreamVeraSans-Roman-30"/>
      </g>
     </g>
    </g>
    <g id="xtick_3">
     <g id="line2d_8">
      <g>
       <use style="stroke:#000000;stroke-width:0.5;" x="126.066923077" xlink:href="#mb3e0011d48" y="170.64"/>
      </g>
     </g>
     <g id="line2d_9">
      <g>
       <use style="stroke:#000000;stroke-width:0.5;" x="126.066923077" xlink:href="#m6794db79e9" y="12.96"/>
      </g>
     </g>
     <g id="text_3">
      <!-- 200 -->
      <defs>
       <path d="M 19.1875 8.296875 
L 53.609375 8.296875 
L 53.609375 0 
L 7.328125 0 
L 7.328125 8.296875 
Q 12.9375 14.109375 22.625 23.890625 
Q 32.328125 33.6875 34.8125 36.53125 
Q 39.546875 41.84375 41.421875 45.53125 
Q 43.3125 49.21875 43.3125 52.78125 
Q 43.3125 58.59375 39.234375 62.25 
Q 35.15625 65.921875 28.609375 65.921875 
Q 23.96875 65.921875 18.8125 64.3125 
Q 13.671875 62.703125 7.8125 59.421875 
L 7.8125 69.390625 
Q 13.765625 71.78125 18.9375 73 
Q 24.125 74.21875 28.421875 74.21875 
Q 39.75 74.21875 46.484375 68.546875 
Q 53.21875 62.890625 53.21875 53.421875 
Q 53.21875 48.921875 51.53125 44.890625 
Q 49.859375 40.875 45.40625 35.40625 
Q 44.1875 33.984375 37.640625 27.21875 
Q 31.109375 20.453125 19.1875 8.296875 
" id="BitstreamVeraSans-Roman-32"/>
      </defs>
      <g transform="translate(114.614423077 183.758125)scale(0.12 -0.12)">
       <use xlink:href="#BitstreamVeraSans-Roman-32"/>
       <use x="63.623046875" xlink:href="#BitstreamVeraSans-Roman-30"/>
       <use x="127.24609375" xlink:href="#BitstreamVeraSans-Roman-30"/>
      </g>
     </g>
    </g>
    <g id="xtick_4">
     <g id="line2d_10">
      <g>
       <use style="stroke:#000000;stroke-width:0.5;" x="166.243846154" xlink:href="#mb3e0011d48" y="170.64"/>
      </g>
     </g>
     <g id="line2d_11">
      <g>
       <use style="stroke:#000000;stroke-width:0.5;" x="166.243846154" xlink:href="#m6794db79e9" y="12.96"/>
      </g>
     </g>
     <g id="text_4">
      <!-- 300 -->
      <defs>
       <path d="M 40.578125 39.3125 
Q 47.65625 37.796875 51.625 33 
Q 55.609375 28.21875 55.609375 21.1875 
Q 55.609375 10.40625 48.1875 4.484375 
Q 40.765625 -1.421875 27.09375 -1.421875 
Q 22.515625 -1.421875 17.65625 -0.515625 
Q 12.796875 0.390625 7.625 2.203125 
L 7.625 11.71875 
Q 11.71875 9.328125 16.59375 8.109375 
Q 21.484375 6.890625 26.8125 6.890625 
Q 36.078125 6.890625 40.9375 10.546875 
Q 45.796875 14.203125 45.796875 21.1875 
Q 45.796875 27.640625 41.28125 31.265625 
Q 36.765625 34.90625 28.71875 34.90625 
L 20.21875 34.90625 
L 20.21875 43.015625 
L 29.109375 43.015625 
Q 36.375 43.015625 40.234375 45.921875 
Q 44.09375 48.828125 44.09375 54.296875 
Q 44.09375 59.90625 40.109375 62.90625 
Q 36.140625 65.921875 28.71875 65.921875 
Q 24.65625 65.921875 20.015625 65.03125 
Q 15.375 64.15625 9.8125 62.3125 
L 9.8125 71.09375 
Q 15.4375 72.65625 20.34375 73.4375 
Q 25.25 74.21875 29.59375 74.21875 
Q 40.828125 74.21875 47.359375 69.109375 
Q 53.90625 64.015625 53.90625 55.328125 
Q 53.90625 49.265625 50.4375 45.09375 
Q 46.96875 40.921875 40.578125 39.3125 
" id="BitstreamVeraSans-Roman-33"/>
      </defs>
      <g transform="translate(154.791346154 183.758125)scale(0.12 -0.12)">
       <use xlink:href="#BitstreamVeraSans-Roman-33"/>
       <use x="63.623046875" xlink:href="#BitstreamVeraSans-Roman-30"/>
       <use x="127.24609375" xlink:href="#BitstreamVeraSans-Roman-30"/>
      </g>
     </g>
    </g>
    <g id="xtick_5">
     <g id="line2d_12">
      <g>
       <use style="stroke:#000000;stroke-width:0.5;" x="206.420769231" xlink:href="#mb3e0011d48" y="170.64"/>
      </g>
     </g>
     <g id="line2d_13">
      <g>
       <use style="stroke:#000000;stroke-width:0.5;" x="206.420769231" xlink:href="#m6794db79e9" y="12.96"/>
      </g>
     </g>
     <g id="text_5">
      <!-- 400 -->
      <defs>
       <path d="M 37.796875 64.3125 
L 12.890625 25.390625 
L 37.796875 25.390625 
z
M 35.203125 72.90625 
L 47.609375 72.90625 
L 47.609375 25.390625 
L 58.015625 25.390625 
L 58.015625 17.1875 
L 47.609375 17.1875 
L 47.609375 0 
L 37.796875 0 
L 37.796875 17.1875 
L 4.890625 17.1875 
L 4.890625 26.703125 
z
" id="BitstreamVeraSans-Roman-34"/>
      </defs>
      <g transform="translate(194.968269231 183.758125)scale(0.12 -0.12)">
       <use xlink:href="#BitstreamVeraSans-Roman-34"/>
       <use x="63.623046875" xlink:href="#BitstreamVeraSans-Roman-30"/>
       <use x="127.24609375" xlink:href="#BitstreamVeraSans-Roman-30"/>
      </g>
     </g>
    </g>
    <g id="xtick_6">
     <g id="line2d_14">
      <g>
       <use style="stroke:#000000;stroke-width:0.5;" x="246.597692308" xlink:href="#mb3e0011d48" y="170.64"/>
      </g>
     </g>
     <g id="line2d_15">
      <g>
       <use style="stroke:#000000;stroke-width:0.5;" x="246.597692308" xlink:href="#m6794db79e9" y="12.96"/>
      </g>
     </g>
     <g id="text_6">
      <!-- 500 -->
      <defs>
       <path d="M 10.796875 72.90625 
L 49.515625 72.90625 
L 49.515625 64.59375 
L 19.828125 64.59375 
L 19.828125 46.734375 
Q 21.96875 47.46875 24.109375 47.828125 
Q 26.265625 48.1875 28.421875 48.1875 
Q 40.625 48.1875 47.75 41.5 
Q 54.890625 34.8125 54.890625 23.390625 
Q 54.890625 11.625 47.5625 5.09375 
Q 40.234375 -1.421875 26.90625 -1.421875 
Q 22.3125 -1.421875 17.546875 -0.640625 
Q 12.796875 0.140625 7.71875 1.703125 
L 7.71875 11.625 
Q 12.109375 9.234375 16.796875 8.0625 
Q 21.484375 6.890625 26.703125 6.890625 
Q 35.15625 6.890625 40.078125 11.328125 
Q 45.015625 15.765625 45.015625 23.390625 
Q 45.015625 31 40.078125 35.4375 
Q 35.15625 39.890625 26.703125 39.890625 
Q 22.75 39.890625 18.8125 39.015625 
Q 14.890625 38.140625 10.796875 36.28125 
z
" id="BitstreamVeraSans-Roman-35"/>
      </defs>
      <g transform="translate(235.145192308 183.758125)scale(0.12 -0.12)">
       <use xlink:href="#BitstreamVeraSans-Roman-35"/>
       <use x="63.623046875" xlink:href="#BitstreamVeraSans-Roman-30"/>
       <use x="127.24609375" xlink:href="#BitstreamVeraSans-Roman-30"/>
      </g>
     </g>
    </g>
    <g id="xtick_7">
     <g id="line2d_16">
      <g>
       <use style="stroke:#000000;stroke-width:0.5;" x="286.774615385" xlink:href="#mb3e0011d48" y="170.64"/>
      </g>
     </g>
     <g id="line2d_17">
      <g>
       <use style="stroke:#000000;stroke-width:0.5;" x="286.774615385" xlink:href="#m6794db79e9" y="12.96"/>
      </g>
     </g>
     <g id="text_7">
      <!-- 600 -->
      <defs>
       <path d="M 33.015625 40.375 
Q 26.375 40.375 22.484375 35.828125 
Q 18.609375 31.296875 18.609375 23.390625 
Q 18.609375 15.53125 22.484375 10.953125 
Q 26.375 6.390625 33.015625 6.390625 
Q 39.65625 6.390625 43.53125 10.953125 
Q 47.40625 15.53125 47.40625 23.390625 
Q 47.40625 31.296875 43.53125 35.828125 
Q 39.65625 40.375 33.015625 40.375 
M 52.59375 71.296875 
L 52.59375 62.3125 
Q 48.875 64.0625 45.09375 64.984375 
Q 41.3125 65.921875 37.59375 65.921875 
Q 27.828125 65.921875 22.671875 59.328125 
Q 17.53125 52.734375 16.796875 39.40625 
Q 19.671875 43.65625 24.015625 45.921875 
Q 28.375 48.1875 33.59375 48.1875 
Q 44.578125 48.1875 50.953125 41.515625 
Q 57.328125 34.859375 57.328125 23.390625 
Q 57.328125 12.15625 50.6875 5.359375 
Q 44.046875 -1.421875 33.015625 -1.421875 
Q 20.359375 -1.421875 13.671875 8.265625 
Q 6.984375 17.96875 6.984375 36.375 
Q 6.984375 53.65625 15.1875 63.9375 
Q 23.390625 74.21875 37.203125 74.21875 
Q 40.921875 74.21875 44.703125 73.484375 
Q 48.484375 72.75 52.59375 71.296875 
" id="BitstreamVeraSans-Roman-36"/>
      </defs>
      <g transform="translate(275.322115385 183.758125)scale(0.12 -0.12)">
       <use xlink:href="#BitstreamVeraSans-Roman-36"/>
       <use x="63.623046875" xlink:href="#BitstreamVeraSans-Roman-30"/>
       <use x="127.24609375" xlink:href="#BitstreamVeraSans-Roman-30"/>
      </g>
     </g>
    </g>
    <g id="xtick_8">
     <g id="line2d_18">
      <g>
       <use style="stroke:#000000;stroke-width:0.5;" x="326.951538462" xlink:href="#mb3e0011d48" y="170.64"/>
      </g>
     </g>
     <g id="line2d_19">
      <g>
       <use style="stroke:#000000;stroke-width:0.5;" x="326.951538462" xlink:href="#m6794db79e9" y="12.96"/>
      </g>
     </g>
     <g id="text_8">
      <!-- 700 -->
      <defs>
       <path d="M 8.203125 72.90625 
L 55.078125 72.90625 
L 55.078125 68.703125 
L 28.609375 0 
L 18.3125 0 
L 43.21875 64.59375 
L 8.203125 64.59375 
z
" id="BitstreamVeraSans-Roman-37"/>
      </defs>
      <g transform="translate(315.499038462 183.758125)scale(0.12 -0.12)">
       <use xlink:href="#BitstreamVeraSans-Roman-37"/>
       <use x="63.623046875" xlink:href="#BitstreamVeraSans-Roman-30"/>
       <use x="127.24609375" xlink:href="#BitstreamVeraSans-Roman-30"/>
      </g>
     </g>
    </g>
    <g id="text_9">
     <!-- Electron energy loss (eV) -->
     <defs>
      <path d="M 28.609375 0 
L 0.78125 72.90625 
L 11.078125 72.90625 
L 34.1875 11.53125 
L 57.328125 72.90625 
L 67.578125 72.90625 
L 39.796875 0 
z
" id="BitstreamVeraSans-Roman-56"/>
      <path d="M 32.171875 -5.078125 
Q 28.375 -14.84375 24.75 -17.8125 
Q 21.140625 -20.796875 15.09375 -20.796875 
L 7.90625 -20.796875 
L 7.90625 -13.28125 
L 13.1875 -13.28125 
Q 16.890625 -13.28125 18.9375 -11.515625 
Q 21 -9.765625 23.484375 -3.21875 
L 25.09375 0.875 
L 2.984375 54.6875 
L 12.5 54.6875 
L 29.59375 11.921875 
L 46.6875 54.6875 
L 56.203125 54.6875 
z
" id="BitstreamVeraSans-Roman-79"/>
      <path d="M 56.203125 29.59375 
L 56.203125 25.203125 
L 14.890625 25.203125 
Q 15.484375 15.921875 20.484375 11.0625 
Q 25.484375 6.203125 34.421875 6.203125 
Q 39.59375 6.203125 44.453125 7.46875 
Q 49.3125 8.734375 54.109375 11.28125 
L 54.109375 2.78125 
Q 49.265625 0.734375 44.1875 -0.34375 
Q 39.109375 -1.421875 33.890625 -1.421875 
Q 20.796875 -1.421875 13.15625 6.1875 
Q 5.515625 13.8125 5.515625 26.8125 
Q 5.515625 40.234375 12.765625 48.109375 
Q 20.015625 56 32.328125 56 
Q 43.359375 56 49.78125 48.890625 
Q 56.203125 41.796875 56.203125 29.59375 
M 47.21875 32.234375 
Q 47.125 39.59375 43.09375 43.984375 
Q 39.0625 48.390625 32.421875 48.390625 
Q 24.90625 48.390625 20.390625 44.140625 
Q 15.875 39.890625 15.1875 32.171875 
z
" id="BitstreamVeraSans-Roman-65"/>
      <path d="M 30.609375 48.390625 
Q 23.390625 48.390625 19.1875 42.75 
Q 14.984375 37.109375 14.984375 27.296875 
Q 14.984375 17.484375 19.15625 11.84375 
Q 23.34375 6.203125 30.609375 6.203125 
Q 37.796875 6.203125 41.984375 11.859375 
Q 46.1875 17.53125 46.1875 27.296875 
Q 46.1875 37.015625 41.984375 42.703125 
Q 37.796875 48.390625 30.609375 48.390625 
M 30.609375 56 
Q 42.328125 56 49.015625 48.375 
Q 55.71875 40.765625 55.71875 27.296875 
Q 55.71875 13.875 49.015625 6.21875 
Q 42.328125 -1.421875 30.609375 -1.421875 
Q 18.84375 -1.421875 12.171875 6.21875 
Q 5.515625 13.875 5.515625 27.296875 
Q 5.515625 40.765625 12.171875 48.375 
Q 18.84375 56 30.609375 56 
" id="BitstreamVeraSans-Roman-6f"/>
      <path d="M 45.40625 27.984375 
Q 45.40625 37.75 41.375 43.109375 
Q 37.359375 48.484375 30.078125 48.484375 
Q 22.859375 48.484375 18.828125 43.109375 
Q 14.796875 37.75 14.796875 27.984375 
Q 14.796875 18.265625 18.828125 12.890625 
Q 22.859375 7.515625 30.078125 7.515625 
Q 37.359375 7.515625 41.375 12.890625 
Q 45.40625 18.265625 45.40625 27.984375 
M 54.390625 6.78125 
Q 54.390625 -7.171875 48.1875 -13.984375 
Q 42 -20.796875 29.203125 -20.796875 
Q 24.46875 -20.796875 20.265625 -20.09375 
Q 16.0625 -19.390625 12.109375 -17.921875 
L 12.109375 -9.1875 
Q 16.0625 -11.328125 19.921875 -12.34375 
Q 23.78125 -13.375 27.78125 -13.375 
Q 36.625 -13.375 41.015625 -8.765625 
Q 45.40625 -4.15625 45.40625 5.171875 
L 45.40625 9.625 
Q 42.625 4.78125 38.28125 2.390625 
Q 33.9375 0 27.875 0 
Q 17.828125 0 11.671875 7.65625 
Q 5.515625 15.328125 5.515625 27.984375 
Q 5.515625 40.671875 11.671875 48.328125 
Q 17.828125 56 27.875 56 
Q 33.9375 56 38.28125 53.609375 
Q 42.625 51.21875 45.40625 46.390625 
L 45.40625 54.6875 
L 54.390625 54.6875 
z
" id="BitstreamVeraSans-Roman-67"/>
      <path d="M 31 75.875 
Q 24.46875 64.65625 21.28125 53.65625 
Q 18.109375 42.671875 18.109375 31.390625 
Q 18.109375 20.125 21.3125 9.0625 
Q 24.515625 -2 31 -13.1875 
L 23.1875 -13.1875 
Q 15.875 -1.703125 12.234375 9.375 
Q 8.59375 20.453125 8.59375 31.390625 
Q 8.59375 42.28125 12.203125 53.3125 
Q 15.828125 64.359375 23.1875 75.875 
z
" id="BitstreamVeraSans-Roman-28"/>
      <path d="M 9.421875 75.984375 
L 18.40625 75.984375 
L 18.40625 0 
L 9.421875 0 
z
" id="BitstreamVeraSans-Roman-6c"/>
      <path d="M 44.28125 53.078125 
L 44.28125 44.578125 
Q 40.484375 46.53125 36.375 47.5 
Q 32.28125 48.484375 27.875 48.484375 
Q 21.1875 48.484375 17.84375 46.4375 
Q 14.5 44.390625 14.5 40.28125 
Q 14.5 37.15625 16.890625 35.375 
Q 19.28125 33.59375 26.515625 31.984375 
L 29.59375 31.296875 
Q 39.15625 29.25 43.1875 25.515625 
Q 47.21875 21.78125 47.21875 15.09375 
Q 47.21875 7.46875 41.1875 3.015625 
Q 35.15625 -1.421875 24.609375 -1.421875 
Q 20.21875 -1.421875 15.453125 -0.5625 
Q 10.6875 0.296875 5.421875 2 
L 5.421875 11.28125 
Q 10.40625 8.6875 15.234375 7.390625 
Q 20.0625 6.109375 24.8125 6.109375 
Q 31.15625 6.109375 34.5625 8.28125 
Q 37.984375 10.453125 37.984375 14.40625 
Q 37.984375 18.0625 35.515625 20.015625 
Q 33.0625 21.96875 24.703125 23.78125 
L 21.578125 24.515625 
Q 13.234375 26.265625 9.515625 29.90625 
Q 5.8125 33.546875 5.8125 39.890625 
Q 5.8125 47.609375 11.28125 51.796875 
Q 16.75 56 26.8125 56 
Q 31.78125 56 36.171875 55.265625 
Q 40.578125 54.546875 44.28125 53.078125 
" id="BitstreamVeraSans-Roman-73"/>
      <path d="M 18.3125 70.21875 
L 18.3125 54.6875 
L 36.8125 54.6875 
L 36.8125 47.703125 
L 18.3125 47.703125 
L 18.3125 18.015625 
Q 18.3125 11.328125 20.140625 9.421875 
Q 21.96875 7.515625 27.59375 7.515625 
L 36.8125 7.515625 
L 36.8125 0 
L 27.59375 0 
Q 17.1875 0 13.234375 3.875 
Q 9.28125 7.765625 9.28125 18.015625 
L 9.28125 47.703125 
L 2.6875 47.703125 
L 2.6875 54.6875 
L 9.28125 54.6875 
L 9.28125 70.21875 
z
" id="BitstreamVeraSans-Roman-74"/>
      <path d="M 41.109375 46.296875 
Q 39.59375 47.171875 37.8125 47.578125 
Q 36.03125 48 33.890625 48 
Q 26.265625 48 22.1875 43.046875 
Q 18.109375 38.09375 18.109375 28.8125 
L 18.109375 0 
L 9.078125 0 
L 9.078125 54.6875 
L 18.109375 54.6875 
L 18.109375 46.1875 
Q 20.953125 51.171875 25.484375 53.578125 
Q 30.03125 56 36.53125 56 
Q 37.453125 56 38.578125 55.875 
Q 39.703125 55.765625 41.0625 55.515625 
z
" id="BitstreamVeraSans-Roman-72"/>
      <path d="M 8.015625 75.875 
L 15.828125 75.875 
Q 23.140625 64.359375 26.78125 53.3125 
Q 30.421875 42.28125 30.421875 31.390625 
Q 30.421875 20.453125 26.78125 9.375 
Q 23.140625 -1.703125 15.828125 -13.1875 
L 8.015625 -13.1875 
Q 14.5 -2 17.703125 9.0625 
Q 20.90625 20.125 20.90625 31.390625 
Q 20.90625 42.671875 17.703125 53.65625 
Q 14.5 64.65625 8.015625 75.875 
" id="BitstreamVeraSans-Roman-29"/>
      <path id="BitstreamVeraSans-Roman-20"/>
      <path d="M 9.8125 72.90625 
L 55.90625 72.90625 
L 55.90625 64.59375 
L 19.671875 64.59375 
L 19.671875 43.015625 
L 54.390625 43.015625 
L 54.390625 34.71875 
L 19.671875 34.71875 
L 19.671875 8.296875 
L 56.78125 8.296875 
L 56.78125 0 
L 9.8125 0 
z
" id="BitstreamVeraSans-Roman-45"/>
      <path d="M 54.890625 33.015625 
L 54.890625 0 
L 45.90625 0 
L 45.90625 32.71875 
Q 45.90625 40.484375 42.875 44.328125 
Q 39.84375 48.1875 33.796875 48.1875 
Q 26.515625 48.1875 22.3125 43.546875 
Q 18.109375 38.921875 18.109375 30.90625 
L 18.109375 0 
L 9.078125 0 
L 9.078125 54.6875 
L 18.109375 54.6875 
L 18.109375 46.1875 
Q 21.34375 51.125 25.703125 53.5625 
Q 30.078125 56 35.796875 56 
Q 45.21875 56 50.046875 50.171875 
Q 54.890625 44.34375 54.890625 33.015625 
" id="BitstreamVeraSans-Roman-6e"/>
      <path d="M 48.78125 52.59375 
L 48.78125 44.1875 
Q 44.96875 46.296875 41.140625 47.34375 
Q 37.3125 48.390625 33.40625 48.390625 
Q 24.65625 48.390625 19.8125 42.84375 
Q 14.984375 37.3125 14.984375 27.296875 
Q 14.984375 17.28125 19.8125 11.734375 
Q 24.65625 6.203125 33.40625 6.203125 
Q 37.3125 6.203125 41.140625 7.25 
Q 44.96875 8.296875 48.78125 10.40625 
L 48.78125 2.09375 
Q 45.015625 0.34375 40.984375 -0.53125 
Q 36.96875 -1.421875 32.421875 -1.421875 
Q 20.0625 -1.421875 12.78125 6.34375 
Q 5.515625 14.109375 5.515625 27.296875 
Q 5.515625 40.671875 12.859375 48.328125 
Q 20.21875 56 33.015625 56 
Q 37.15625 56 41.109375 55.140625 
Q 45.0625 54.296875 48.78125 52.59375 
" id="BitstreamVeraSans-Roman-63"/>
     </defs>
     <g transform="translate(114.81 200.371875)scale(0.12 -0.12)">
      <use xlink:href="#BitstreamVeraSans-Roman-45"/>
      <use x="63.18359375" xlink:href="#BitstreamVeraSans-Roman-6c"/>
      <use x="90.966796875" xlink:href="#BitstreamVeraSans-Roman-65"/>
      <use x="152.490234375" xlink:href="#BitstreamVeraSans-Roman-63"/>
      <use x="207.470703125" xlink:href="#BitstreamVeraSans-Roman-74"/>
      <use x="246.6796875" xlink:href="#BitstreamVeraSans-Roman-72"/>
      <use x="287.76171875" xlink:href="#BitstreamVeraSans-Roman-6f"/>
      <use x="348.943359375" xlink:href="#BitstreamVeraSans-Roman-6e"/>
      <use x="412.322265625" xlink:href="#BitstreamVeraSans-Roman-20"/>
      <use x="444.109375" xlink:href="#BitstreamVeraSans-Roman-65"/>
      <use x="505.6328125" xlink:href="#BitstreamVeraSans-Roman-6e"/>
      <use x="569.01171875" xlink:href="#BitstreamVeraSans-Roman-65"/>
      <use x="630.53515625" xlink:href="#BitstreamVeraSans-Roman-72"/>
      <use x="671.6328125" xlink:href="#BitstreamVeraSans-Roman-67"/>
      <use x="735.109375" xlink:href="#BitstreamVeraSans-Roman-79"/>
      <use x="794.2890625" xlink:href="#BitstreamVeraSans-Roman-20"/>
      <use x="826.076171875" xlink:href="#BitstreamVeraSans-Roman-6c"/>
      <use x="853.859375" xlink:href="#BitstreamVeraSans-Roman-6f"/>
      <use x="915.041015625" xlink:href="#BitstreamVeraSans-Roman-73"/>
      <use x="967.140625" xlink:href="#BitstreamVeraSans-Roman-73"/>
      <use x="1019.240234375" xlink:href="#BitstreamVeraSans-Roman-20"/>
      <use x="1051.02734375" xlink:href="#BitstreamVeraSans-Roman-28"/>
      <use x="1090.041015625" xlink:href="#BitstreamVeraSans-Roman-65"/>
      <use x="1151.564453125" xlink:href="#BitstreamVeraSans-Roman-56"/>
      <use x="1219.97265625" xlink:href="#BitstreamVeraSans-Roman-29"/>
     </g>
    </g>
   </g>
   <g id="matplotlib.axis_2">
    <g id="ytick_1">
     <g id="line2d_20">
      <defs>
       <path d="M 0 0 
L 4 0 
" id="m0ece694ec5" style="stroke:#000000;stroke-width:0.5;"/>
      </defs>
      <g>
       <use style="stroke:#000000;stroke-width:0.5;" x="33.66" xlink:href="#m0ece694ec5" y="170.64"/>
      </g>
     </g>
     <g id="line2d_21">
      <defs>
       <path d="M 0 0 
L -4 0 
" id="m2c9759a3ac" style="stroke:#000000;stroke-width:0.5;"/>
      </defs>
      <g>
       <use style="stroke:#000000;stroke-width:0.5;" x="347.04" xlink:href="#m2c9759a3ac" y="170.64"/>
      </g>
     </g>
    </g>
    <g id="ytick_2">
     <g id="line2d_22">
      <g>
       <use style="stroke:#000000;stroke-width:0.5;" x="33.66" xlink:href="#m0ece694ec5" y="140.605714286"/>
      </g>
     </g>
     <g id="line2d_23">
      <g>
       <use style="stroke:#000000;stroke-width:0.5;" x="347.04" xlink:href="#m2c9759a3ac" y="140.605714286"/>
      </g>
     </g>
    </g>
    <g id="ytick_3">
     <g id="line2d_24">
      <g>
       <use style="stroke:#000000;stroke-width:0.5;" x="33.66" xlink:href="#m0ece694ec5" y="110.571428571"/>
      </g>
     </g>
     <g id="line2d_25">
      <g>
       <use style="stroke:#000000;stroke-width:0.5;" x="347.04" xlink:href="#m2c9759a3ac" y="110.571428571"/>
      </g>
     </g>
    </g>
    <g id="ytick_4">
     <g id="line2d_26">
      <g>
       <use style="stroke:#000000;stroke-width:0.5;" x="33.66" xlink:href="#m0ece694ec5" y="80.5371428571"/>
      </g>
     </g>
     <g id="line2d_27">
      <g>
       <use style="stroke:#000000;stroke-width:0.5;" x="347.04" xlink:href="#m2c9759a3ac" y="80.5371428571"/>
      </g>
     </g>
    </g>
    <g id="ytick_5">
     <g id="line2d_28">
      <g>
       <use style="stroke:#000000;stroke-width:0.5;" x="33.66" xlink:href="#m0ece694ec5" y="50.5028571429"/>
      </g>
     </g>
     <g id="line2d_29">
      <g>
       <use style="stroke:#000000;stroke-width:0.5;" x="347.04" xlink:href="#m2c9759a3ac" y="50.5028571429"/>
      </g>
     </g>
    </g>
    <g id="ytick_6">
     <g id="line2d_30">
      <g>
       <use style="stroke:#000000;stroke-width:0.5;" x="33.66" xlink:href="#m0ece694ec5" y="20.4685714286"/>
      </g>
     </g>
     <g id="line2d_31">
      <g>
       <use style="stroke:#000000;stroke-width:0.5;" x="347.04" xlink:href="#m2c9759a3ac" y="20.4685714286"/>
      </g>
     </g>
    </g>
    <g id="text_10">
     <!-- Electron counts (#) -->
     <defs>
      <path d="M 8.5 21.578125 
L 8.5 54.6875 
L 17.484375 54.6875 
L 17.484375 21.921875 
Q 17.484375 14.15625 20.5 10.265625 
Q 23.53125 6.390625 29.59375 6.390625 
Q 36.859375 6.390625 41.078125 11.03125 
Q 45.3125 15.671875 45.3125 23.6875 
L 45.3125 54.6875 
L 54.296875 54.6875 
L 54.296875 0 
L 45.3125 0 
L 45.3125 8.40625 
Q 42.046875 3.421875 37.71875 1 
Q 33.40625 -1.421875 27.6875 -1.421875 
Q 18.265625 -1.421875 13.375 4.4375 
Q 8.5 10.296875 8.5 21.578125 
" id="BitstreamVeraSans-Roman-75"/>
      <path d="M 51.125 44 
L 36.921875 44 
L 32.8125 27.6875 
L 47.125 27.6875 
z
M 43.796875 71.78125 
L 38.71875 51.515625 
L 52.984375 51.515625 
L 58.109375 71.78125 
L 65.921875 71.78125 
L 60.890625 51.515625 
L 76.125 51.515625 
L 76.125 44 
L 58.984375 44 
L 54.984375 27.6875 
L 70.515625 27.6875 
L 70.515625 20.21875 
L 53.078125 20.21875 
L 48 0 
L 40.1875 0 
L 45.21875 20.21875 
L 30.90625 20.21875 
L 25.875 0 
L 18.015625 0 
L 23.09375 20.21875 
L 7.71875 20.21875 
L 7.71875 27.6875 
L 24.90625 27.6875 
L 29 44 
L 13.28125 44 
L 13.28125 51.515625 
L 30.90625 51.515625 
L 35.890625 71.78125 
z
" id="BitstreamVeraSans-Roman-23"/>
     </defs>
     <g transform="translate(22.164375 150.11625)rotate(-90.0)scale(0.12 -0.12)">
      <use xlink:href="#BitstreamVeraSans-Roman-45"/>
      <use x="63.18359375" xlink:href="#BitstreamVeraSans-Roman-6c"/>
      <use x="90.966796875" xlink:href="#BitstreamVeraSans-Roman-65"/>
      <use x="152.490234375" xlink:href="#BitstreamVeraSans-Roman-63"/>
      <use x="207.470703125" xlink:href="#BitstreamVeraSans-Roman-74"/>
      <use x="246.6796875" xlink:href="#BitstreamVeraSans-Roman-72"/>
      <use x="287.76171875" xlink:href="#BitstreamVeraSans-Roman-6f"/>
      <use x="348.943359375" xlink:href="#BitstreamVeraSans-Roman-6e"/>
      <use x="412.322265625" xlink:href="#BitstreamVeraSans-Roman-20"/>
      <use x="444.109375" xlink:href="#BitstreamVeraSans-Roman-63"/>
      <use x="499.08984375" xlink:href="#BitstreamVeraSans-Roman-6f"/>
      <use x="560.271484375" xlink:href="#BitstreamVeraSans-Roman-75"/>
      <use x="623.650390625" xlink:href="#BitstreamVeraSans-Roman-6e"/>
      <use x="687.029296875" xlink:href="#BitstreamVeraSans-Roman-74"/>
      <use x="726.23828125" xlink:href="#BitstreamVeraSans-Roman-73"/>
      <use x="778.337890625" xlink:href="#BitstreamVeraSans-Roman-20"/>
      <use x="810.125" xlink:href="#BitstreamVeraSans-Roman-28"/>
      <use x="849.138671875" xlink:href="#BitstreamVeraSans-Roman-23"/>
      <use x="932.927734375" xlink:href="#BitstreamVeraSans-Roman-29"/>
     </g>
    </g>
   </g>
   <g id="patch_7">
    <path d="M 88.292943 63.764192 
Q 74.836305 70.395329 61.379667 77.026466 
L 63.147762 80.61448 
Q 56.439265 80.575811 49.730769 80.537143 
Q 53.787123 75.193791 57.843478 69.850439 
L 59.611572 73.438453 
Q 73.06821 66.807316 86.524848 60.176178 
L 88.292943 63.764192 
z
" style="stroke:#000000;stroke-linecap:round;stroke-width:0.3;"/>
   </g>
   <g id="text_11">
    <!-- Zero loss -->
    <defs>
     <path d="M 5.609375 72.90625 
L 62.890625 72.90625 
L 62.890625 65.375 
L 16.796875 8.296875 
L 64.015625 8.296875 
L 64.015625 0 
L 4.5 0 
L 4.5 7.515625 
L 50.59375 64.59375 
L 5.609375 64.59375 
z
" id="BitstreamVeraSans-Roman-5a"/>
    </defs>
    <g transform="translate(89.9076923077 38.1670825893)scale(0.17 -0.17)">
     <use xlink:href="#BitstreamVeraSans-Roman-5a"/>
     <use x="68.505859375" xlink:href="#BitstreamVeraSans-Roman-65"/>
     <use x="130.029296875" xlink:href="#BitstreamVeraSans-Roman-72"/>
     <use x="171.111328125" xlink:href="#BitstreamVeraSans-Roman-6f"/>
     <use x="232.29296875" xlink:href="#BitstreamVeraSans-Roman-20"/>
     <use x="264.080078125" xlink:href="#BitstreamVeraSans-Roman-6c"/>
     <use x="291.86328125" xlink:href="#BitstreamVeraSans-Roman-6f"/>
     <use x="353.044921875" xlink:href="#BitstreamVeraSans-Roman-73"/>
     <use x="405.14453125" xlink:href="#BitstreamVeraSans-Roman-73"/>
    </g>
    <!-- peak -->
    <defs>
     <path d="M 9.078125 75.984375 
L 18.109375 75.984375 
L 18.109375 31.109375 
L 44.921875 54.6875 
L 56.390625 54.6875 
L 27.390625 29.109375 
L 57.625 0 
L 45.90625 0 
L 18.109375 26.703125 
L 18.109375 0 
L 9.078125 0 
z
" id="BitstreamVeraSans-Roman-6b"/>
     <path d="M 34.28125 27.484375 
Q 23.390625 27.484375 19.1875 25 
Q 14.984375 22.515625 14.984375 16.5 
Q 14.984375 11.71875 18.140625 8.90625 
Q 21.296875 6.109375 26.703125 6.109375 
Q 34.1875 6.109375 38.703125 11.40625 
Q 43.21875 16.703125 43.21875 25.484375 
L 43.21875 27.484375 
z
M 52.203125 31.203125 
L 52.203125 0 
L 43.21875 0 
L 43.21875 8.296875 
Q 40.140625 3.328125 35.546875 0.953125 
Q 30.953125 -1.421875 24.3125 -1.421875 
Q 15.921875 -1.421875 10.953125 3.296875 
Q 6 8.015625 6 15.921875 
Q 6 25.140625 12.171875 29.828125 
Q 18.359375 34.515625 30.609375 34.515625 
L 43.21875 34.515625 
L 43.21875 35.40625 
Q 43.21875 41.609375 39.140625 45 
Q 35.0625 48.390625 27.6875 48.390625 
Q 23 48.390625 18.546875 47.265625 
Q 14.109375 46.140625 10.015625 43.890625 
L 10.015625 52.203125 
Q 14.9375 54.109375 19.578125 55.046875 
Q 24.21875 56 28.609375 56 
Q 40.484375 56 46.34375 49.84375 
Q 52.203125 43.703125 52.203125 31.203125 
" id="BitstreamVeraSans-Roman-61"/>
     <path d="M 18.109375 8.203125 
L 18.109375 -20.796875 
L 9.078125 -20.796875 
L 9.078125 54.6875 
L 18.109375 54.6875 
L 18.109375 46.390625 
Q 20.953125 51.265625 25.265625 53.625 
Q 29.59375 56 35.59375 56 
Q 45.5625 56 51.78125 48.09375 
Q 58.015625 40.1875 58.015625 27.296875 
Q 58.015625 14.40625 51.78125 6.484375 
Q 45.5625 -1.421875 35.59375 -1.421875 
Q 29.59375 -1.421875 25.265625 0.953125 
Q 20.953125 3.328125 18.109375 8.203125 
M 48.6875 27.296875 
Q 48.6875 37.203125 44.609375 42.84375 
Q 40.53125 48.484375 33.40625 48.484375 
Q 26.265625 48.484375 22.1875 42.84375 
Q 18.109375 37.203125 18.109375 27.296875 
Q 18.109375 17.390625 22.1875 11.75 
Q 26.265625 6.109375 33.40625 6.109375 
Q 40.53125 6.109375 44.609375 11.75 
Q 48.6875 17.390625 48.6875 27.296875 
" id="BitstreamVeraSans-Roman-70"/>
    </defs>
    <g transform="translate(89.9076923077 57.2033638393)scale(0.17 -0.17)">
     <use xlink:href="#BitstreamVeraSans-Roman-70"/>
     <use x="63.4765625" xlink:href="#BitstreamVeraSans-Roman-65"/>
     <use x="125.0" xlink:href="#BitstreamVeraSans-Roman-61"/>
     <use x="186.279296875" xlink:href="#BitstreamVeraSans-Roman-6b"/>
    </g>
   </g>
   <g id="patch_8">
    <path d="M 84.629338 140.171779 
Q 78.537624 144.970684 72.44591 149.76959 
L 74.921199 152.911714 
Q 68.352523 154.267285 61.783846 155.622857 
Q 64.639589 149.554099 67.495331 143.485342 
L 69.97062 146.627466 
Q 76.062335 141.82856 82.154049 137.029655 
L 84.629338 140.171779 
z
" style="stroke:#000000;stroke-linecap:round;stroke-width:0.3;"/>
   </g>
   <g id="text_12">
    <!-- Plasmon -->
    <defs>
     <path d="M 52 44.1875 
Q 55.375 50.25 60.0625 53.125 
Q 64.75 56 71.09375 56 
Q 79.640625 56 84.28125 50.015625 
Q 88.921875 44.046875 88.921875 33.015625 
L 88.921875 0 
L 79.890625 0 
L 79.890625 32.71875 
Q 79.890625 40.578125 77.09375 44.375 
Q 74.3125 48.1875 68.609375 48.1875 
Q 61.625 48.1875 57.5625 43.546875 
Q 53.515625 38.921875 53.515625 30.90625 
L 53.515625 0 
L 44.484375 0 
L 44.484375 32.71875 
Q 44.484375 40.625 41.703125 44.40625 
Q 38.921875 48.1875 33.109375 48.1875 
Q 26.21875 48.1875 22.15625 43.53125 
Q 18.109375 38.875 18.109375 30.90625 
L 18.109375 0 
L 9.078125 0 
L 9.078125 54.6875 
L 18.109375 54.6875 
L 18.109375 46.1875 
Q 21.1875 51.21875 25.484375 53.609375 
Q 29.78125 56 35.6875 56 
Q 41.65625 56 45.828125 52.96875 
Q 50 49.953125 52 44.1875 
" id="BitstreamVeraSans-Roman-6d"/>
     <path d="M 19.671875 64.796875 
L 19.671875 37.40625 
L 32.078125 37.40625 
Q 38.96875 37.40625 42.71875 40.96875 
Q 46.484375 44.53125 46.484375 51.125 
Q 46.484375 57.671875 42.71875 61.234375 
Q 38.96875 64.796875 32.078125 64.796875 
z
M 9.8125 72.90625 
L 32.078125 72.90625 
Q 44.34375 72.90625 50.609375 67.359375 
Q 56.890625 61.8125 56.890625 51.125 
Q 56.890625 40.328125 50.609375 34.8125 
Q 44.34375 29.296875 32.078125 29.296875 
L 19.671875 29.296875 
L 19.671875 0 
L 9.8125 0 
z
" id="BitstreamVeraSans-Roman-50"/>
    </defs>
    <g transform="translate(85.89 114.060861607)scale(0.17 -0.17)">
     <use xlink:href="#BitstreamVeraSans-Roman-50"/>
     <use x="60.302734375" xlink:href="#BitstreamVeraSans-Roman-6c"/>
     <use x="88.0859375" xlink:href="#BitstreamVeraSans-Roman-61"/>
     <use x="149.365234375" xlink:href="#BitstreamVeraSans-Roman-73"/>
     <use x="201.46484375" xlink:href="#BitstreamVeraSans-Roman-6d"/>
     <use x="298.876953125" xlink:href="#BitstreamVeraSans-Roman-6f"/>
     <use x="360.05859375" xlink:href="#BitstreamVeraSans-Roman-6e"/>
    </g>
    <!-- peaks -->
    <g transform="translate(85.89 133.097142857)scale(0.17 -0.17)">
     <use xlink:href="#BitstreamVeraSans-Roman-70"/>
     <use x="63.4765625" xlink:href="#BitstreamVeraSans-Roman-65"/>
     <use x="125.0" xlink:href="#BitstreamVeraSans-Roman-61"/>
     <use x="186.279296875" xlink:href="#BitstreamVeraSans-Roman-6b"/>
     <use x="244.189453125" xlink:href="#BitstreamVeraSans-Roman-73"/>
    </g>
   </g>
  </g>
  <g id="axes_2">
   <g id="patch_9">
    <path d="M 183.15 99 
L 339.84 99 
L 339.84 20.16 
L 183.15 20.16 
z
" style="fill:#ffffff;"/>
   </g>
   <g id="line2d_32">
    <path clip-path="url(#p2a348147ec)" d="M 182.848673 59.289976 
L 183.15 59.109906 
L 183.451327 58.956011 
L 184.053981 60.127423 
L 184.355308 60.188637 
L 184.656635 59.786321 
L 184.957962 59.829935 
L 185.259288 60.036213 
L 185.560615 60.610894 
L 186.163269 61.019071 
L 186.464596 61.284967 
L 187.06725 60.836811 
L 187.368577 60.768956 
L 188.272558 61.60972 
L 189.176538 61.802388 
L 189.477865 62.010422 
L 190.080519 62.663074 
L 190.9845 63.041584 
L 191.285827 63.407051 
L 191.888481 63.489979 
L 193.395115 64.984591 
L 193.696442 65.087336 
L 193.997769 65.356921 
L 194.600423 65.535829 
L 194.90175 65.723115 
L 195.504404 65.442757 
L 197.915019 67.56516 
L 198.216346 67.394312 
L 198.819 67.419094 
L 199.421654 68.079363 
L 200.024308 68.044313 
L 200.325635 68.124785 
L 200.626962 67.990051 
L 200.928288 68.10566 
L 202.133596 69.092321 
L 202.434923 69.159033 
L 203.037577 69.622466 
L 203.338904 69.776636 
L 203.640231 69.778374 
L 203.941558 69.897158 
L 204.242885 69.868422 
L 204.845538 70.295094 
L 205.146865 70.35183 
L 206.050846 71.018607 
L 206.6535 70.702083 
L 206.954827 71.053718 
L 207.256154 71.144333 
L 209.064115 70.987778 
L 209.666769 71.064491 
L 210.269423 71.513906 
L 210.872077 71.810879 
L 211.474731 71.586176 
L 211.776058 71.869895 
L 212.077385 71.937165 
L 212.378712 71.57848 
L 212.680038 71.776336 
L 212.981365 72.254948 
L 214.488 72.567216 
L 214.789327 72.85253 
L 216.295962 73.371166 
L 216.597288 73.775193 
L 217.199942 73.550765 
L 218.103923 73.46296 
L 218.40525 73.597669 
L 218.706577 74.298554 
L 219.007904 74.556675 
L 219.309231 74.654162 
L 219.911885 74.501614 
L 220.213212 74.850404 
L 220.514538 75.013121 
L 220.815865 74.72309 
L 221.117192 74.646448 
L 221.418519 74.945009 
L 222.021173 74.948023 
L 222.623827 75.575078 
L 223.527808 75.35519 
L 224.130462 75.996289 
L 224.431788 76.441705 
L 224.733115 76.6527 
L 225.034442 76.602782 
L 226.23975 76.871463 
L 226.541077 76.80961 
L 227.143731 77.287079 
L 227.746385 77.774513 
L 228.047712 78.078633 
L 228.349038 78.018066 
L 228.951692 77.318049 
L 229.253019 77.4238 
L 229.554346 77.843068 
L 229.855673 77.964566 
L 230.157 78.33459 
L 230.759654 78.121697 
L 231.060981 78.340185 
L 231.362308 78.257363 
L 231.663635 77.992965 
L 231.964962 78.025611 
L 232.567615 78.419292 
L 232.868942 78.669778 
L 233.471596 79.580861 
L 233.772923 79.612807 
L 234.07425 79.526359 
L 234.676904 79.762066 
L 234.978231 79.568909 
L 235.279558 79.638352 
L 236.183538 80.545392 
L 236.484865 80.504021 
L 237.087519 80.221322 
L 238.292827 80.87276 
L 238.594154 81.310905 
L 238.895481 81.385978 
L 239.498135 81.268178 
L 240.100788 81.626082 
L 240.402115 81.683536 
L 241.004769 82.274168 
L 241.607423 81.700853 
L 242.210077 81.964178 
L 242.511404 81.950701 
L 243.114058 83.015414 
L 243.415385 83.147941 
L 244.018038 82.889031 
L 244.319365 83.113885 
L 244.620692 83.502733 
L 245.524673 83.671798 
L 246.127327 83.368228 
L 246.428654 83.464687 
L 247.031308 84.22707 
L 247.332635 84.351892 
L 247.935288 84.192748 
L 248.236615 84.513918 
L 248.537942 84.567135 
L 249.140596 84.176017 
L 249.74325 84.386808 
L 250.044577 84.361291 
L 250.345904 84.452083 
L 250.948558 85.171403 
L 251.852538 85.520511 
L 252.756519 85.256246 
L 253.057846 85.248656 
L 254.263154 85.996073 
L 254.865808 85.88463 
L 255.468462 86.660722 
L 256.071115 86.499183 
L 256.673769 86.780091 
L 257.57775 86.649151 
L 257.879077 86.802567 
L 258.481731 87.505226 
L 259.385712 87.594468 
L 259.988365 87.886219 
L 260.289692 88.312129 
L 260.591019 88.487676 
L 260.892346 88.409873 
L 261.193673 88.212195 
L 261.796327 88.426808 
L 262.097654 88.367021 
L 262.700308 88.10523 
L 263.001635 88.142132 
L 263.604288 87.901531 
L 263.905615 88.157817 
L 264.206942 87.804745 
L 264.508269 86.607541 
L 265.110923 82.674781 
L 265.713577 75.749295 
L 266.316231 65.699974 
L 267.220212 50.525459 
L 268.425519 35.335836 
L 268.726846 33.213318 
L 269.028173 31.991128 
L 269.3295 31.937264 
L 269.630827 33.084612 
L 269.932154 35.094224 
L 270.534808 41.638878 
L 272.342769 64.26263 
L 272.945423 69.94462 
L 273.849404 75.316842 
L 274.452058 77.848229 
L 275.356038 80.597296 
L 275.657365 81.372554 
L 276.561346 82.535932 
L 276.862673 82.853459 
L 277.465327 82.787953 
L 277.766654 82.615341 
L 278.067981 82.263448 
L 278.369308 81.590669 
L 278.670635 80.622734 
L 278.971962 79.067608 
L 281.08125 64.54422 
L 281.683904 62.301083 
L 282.286558 61.280986 
L 282.587885 61.288505 
L 282.889212 62.161445 
L 284.094519 69.291817 
L 285.601154 78.427147 
L 286.505135 81.711891 
L 288.313096 83.909606 
L 288.614423 84.091839 
L 289.217077 84.879563 
L 289.819731 84.802034 
L 290.422385 85.212064 
L 291.025038 85.564125 
L 291.326365 85.958914 
L 291.627692 86.044475 
L 291.929019 86.001021 
L 292.230346 86.111133 
L 292.833 86.84721 
L 293.736981 86.632943 
L 294.038308 86.796982 
L 294.640962 86.597016 
L 294.942288 86.752756 
L 295.544942 87.215887 
L 296.147596 87.056636 
L 296.75025 87.511495 
L 297.051577 87.459023 
L 297.654231 87.039488 
L 297.955558 87.068331 
L 298.558212 87.514306 
L 299.160865 87.5059 
L 299.462192 87.401906 
L 300.064846 86.528576 
L 300.6675 86.118883 
L 300.968827 85.9616 
L 301.270154 86.03333 
L 301.872808 86.679253 
L 302.475462 86.288099 
L 303.078115 85.85256 
L 303.379442 85.733244 
L 303.982096 85.793208 
L 304.283423 85.512336 
L 304.58475 85.389004 
L 304.886077 85.420063 
L 305.187404 85.250057 
L 305.488731 85.541037 
L 305.790058 85.601719 
L 306.091385 85.461549 
L 306.392712 85.464785 
L 307.598019 85.954569 
L 307.899346 86.012813 
L 308.803327 85.663314 
L 309.405981 85.867935 
L 309.707308 85.983678 
L 310.309962 86.497357 
L 310.912615 86.100281 
L 311.213942 86.014932 
L 311.515269 86.175433 
L 312.117923 87.089983 
L 312.41925 87.168513 
L 313.021904 86.815397 
L 313.624558 87.025275 
L 314.528538 86.267387 
L 315.733846 86.889468 
L 316.035173 86.762828 
L 316.3365 86.826064 
L 317.240481 87.568143 
L 317.541808 87.661596 
L 318.144462 87.354833 
L 318.747115 87.534353 
L 319.048442 87.365482 
L 319.651096 87.879977 
L 320.856404 88.055285 
L 321.157731 88.394658 
L 321.459058 88.369982 
L 321.760385 88.507821 
L 322.061712 88.85129 
L 322.664365 88.526821 
L 322.965692 88.568361 
L 323.568346 88.197574 
L 324.171 88.581882 
L 324.472327 88.238927 
L 324.773654 88.093153 
L 325.074981 88.371827 
L 325.677635 88.363004 
L 326.280288 88.809618 
L 327.184269 89.137039 
L 327.786923 89.640415 
L 328.08825 89.546927 
L 328.389577 89.586861 
L 328.690904 89.844822 
L 328.992231 90.262318 
L 329.293558 90.326015 
L 329.896212 90.028314 
L 330.498865 90.292845 
L 331.402846 91.31554 
L 331.704173 91.225084 
L 332.306827 91.357726 
L 332.608154 91.476032 
L 333.813462 92.733395 
L 334.416115 92.743955 
L 335.018769 93.015898 
L 335.621423 92.835182 
L 335.92275 92.789839 
L 336.224077 92.903684 
L 336.525404 93.276661 
L 337.429385 93.749714 
L 337.730712 93.622268 
L 338.032038 93.77517 
L 338.333365 93.777732 
L 338.634692 94.099479 
L 338.936019 94.254447 
L 339.538673 94.116813 
L 340.141327 94.175651 
L 340.141327 94.175651 
" style="fill:none;stroke:#0000ff;stroke-linecap:square;stroke-width:2.0;"/>
   </g>
   <g id="patch_10">
    <path d="M 183.15 99 
L 183.15 20.16 
" style="fill:none;stroke:#000000;stroke-linecap:square;stroke-linejoin:miter;"/>
   </g>
   <g id="patch_11">
    <path d="M 183.15 20.16 
L 339.84 20.16 
" style="fill:none;stroke:#000000;stroke-linecap:square;stroke-linejoin:miter;"/>
   </g>
   <g id="patch_12">
    <path d="M 339.84 99 
L 339.84 20.16 
" style="fill:none;stroke:#000000;stroke-linecap:square;stroke-linejoin:miter;"/>
   </g>
   <g id="patch_13">
    <path d="M 183.15 99 
L 339.84 99 
" style="fill:none;stroke:#000000;stroke-linecap:square;stroke-linejoin:miter;"/>
   </g>
   <g id="matplotlib.axis_3">
    <g id="xtick_9">
     <g id="line2d_33">
      <g>
       <use style="stroke:#000000;stroke-width:0.5;" x="219.309230769" xlink:href="#mb3e0011d48" y="99.0"/>
      </g>
     </g>
     <g id="line2d_34">
      <g>
       <use style="stroke:#000000;stroke-width:0.5;" x="219.309230769" xlink:href="#m6794db79e9" y="20.16"/>
      </g>
     </g>
     <g id="text_13">
      <!-- 600 -->
      <g transform="translate(207.856730769 112.118125)scale(0.12 -0.12)">
       <use xlink:href="#BitstreamVeraSans-Roman-36"/>
       <use x="63.623046875" xlink:href="#BitstreamVeraSans-Roman-30"/>
       <use x="127.24609375" xlink:href="#BitstreamVeraSans-Roman-30"/>
      </g>
     </g>
    </g>
    <g id="xtick_10">
     <g id="line2d_35">
      <g>
       <use style="stroke:#000000;stroke-width:0.5;" x="267.521538462" xlink:href="#mb3e0011d48" y="99.0"/>
      </g>
     </g>
     <g id="line2d_36">
      <g>
       <use style="stroke:#000000;stroke-width:0.5;" x="267.521538462" xlink:href="#m6794db79e9" y="20.16"/>
      </g>
     </g>
     <g id="text_14">
      <!-- 640 -->
      <g transform="translate(256.069038462 112.118125)scale(0.12 -0.12)">
       <use xlink:href="#BitstreamVeraSans-Roman-36"/>
       <use x="63.623046875" xlink:href="#BitstreamVeraSans-Roman-34"/>
       <use x="127.24609375" xlink:href="#BitstreamVeraSans-Roman-30"/>
      </g>
     </g>
    </g>
    <g id="xtick_11">
     <g id="line2d_37">
      <g>
       <use style="stroke:#000000;stroke-width:0.5;" x="315.733846154" xlink:href="#mb3e0011d48" y="99.0"/>
      </g>
     </g>
     <g id="line2d_38">
      <g>
       <use style="stroke:#000000;stroke-width:0.5;" x="315.733846154" xlink:href="#m6794db79e9" y="20.16"/>
      </g>
     </g>
     <g id="text_15">
      <!-- 680 -->
      <defs>
       <path d="M 31.78125 34.625 
Q 24.75 34.625 20.71875 30.859375 
Q 16.703125 27.09375 16.703125 20.515625 
Q 16.703125 13.921875 20.71875 10.15625 
Q 24.75 6.390625 31.78125 6.390625 
Q 38.8125 6.390625 42.859375 10.171875 
Q 46.921875 13.96875 46.921875 20.515625 
Q 46.921875 27.09375 42.890625 30.859375 
Q 38.875 34.625 31.78125 34.625 
M 21.921875 38.8125 
Q 15.578125 40.375 12.03125 44.71875 
Q 8.5 49.078125 8.5 55.328125 
Q 8.5 64.0625 14.71875 69.140625 
Q 20.953125 74.21875 31.78125 74.21875 
Q 42.671875 74.21875 48.875 69.140625 
Q 55.078125 64.0625 55.078125 55.328125 
Q 55.078125 49.078125 51.53125 44.71875 
Q 48 40.375 41.703125 38.8125 
Q 48.828125 37.15625 52.796875 32.3125 
Q 56.78125 27.484375 56.78125 20.515625 
Q 56.78125 9.90625 50.3125 4.234375 
Q 43.84375 -1.421875 31.78125 -1.421875 
Q 19.734375 -1.421875 13.25 4.234375 
Q 6.78125 9.90625 6.78125 20.515625 
Q 6.78125 27.484375 10.78125 32.3125 
Q 14.796875 37.15625 21.921875 38.8125 
M 18.3125 54.390625 
Q 18.3125 48.734375 21.84375 45.5625 
Q 25.390625 42.390625 31.78125 42.390625 
Q 38.140625 42.390625 41.71875 45.5625 
Q 45.3125 48.734375 45.3125 54.390625 
Q 45.3125 60.0625 41.71875 63.234375 
Q 38.140625 66.40625 31.78125 66.40625 
Q 25.390625 66.40625 21.84375 63.234375 
Q 18.3125 60.0625 18.3125 54.390625 
" id="BitstreamVeraSans-Roman-38"/>
      </defs>
      <g transform="translate(304.281346154 112.118125)scale(0.12 -0.12)">
       <use xlink:href="#BitstreamVeraSans-Roman-36"/>
       <use x="63.623046875" xlink:href="#BitstreamVeraSans-Roman-38"/>
       <use x="127.24609375" xlink:href="#BitstreamVeraSans-Roman-30"/>
      </g>
     </g>
    </g>
   </g>
   <g id="matplotlib.axis_4">
    <g id="ytick_7">
     <g id="line2d_39">
      <g>
       <use style="stroke:#000000;stroke-width:0.5;" x="183.15" xlink:href="#m0ece694ec5" y="94.5373584906"/>
      </g>
     </g>
     <g id="line2d_40">
      <g>
       <use style="stroke:#000000;stroke-width:0.5;" x="339.84" xlink:href="#m2c9759a3ac" y="94.5373584906"/>
      </g>
     </g>
    </g>
    <g id="ytick_8">
     <g id="line2d_41">
      <g>
       <use style="stroke:#000000;stroke-width:0.5;" x="183.15" xlink:href="#m0ece694ec5" y="79.6618867925"/>
      </g>
     </g>
     <g id="line2d_42">
      <g>
       <use style="stroke:#000000;stroke-width:0.5;" x="339.84" xlink:href="#m2c9759a3ac" y="79.6618867925"/>
      </g>
     </g>
    </g>
    <g id="ytick_9">
     <g id="line2d_43">
      <g>
       <use style="stroke:#000000;stroke-width:0.5;" x="183.15" xlink:href="#m0ece694ec5" y="64.7864150943"/>
      </g>
     </g>
     <g id="line2d_44">
      <g>
       <use style="stroke:#000000;stroke-width:0.5;" x="339.84" xlink:href="#m2c9759a3ac" y="64.7864150943"/>
      </g>
     </g>
    </g>
    <g id="ytick_10">
     <g id="line2d_45">
      <g>
       <use style="stroke:#000000;stroke-width:0.5;" x="183.15" xlink:href="#m0ece694ec5" y="49.9109433962"/>
      </g>
     </g>
     <g id="line2d_46">
      <g>
       <use style="stroke:#000000;stroke-width:0.5;" x="339.84" xlink:href="#m2c9759a3ac" y="49.9109433962"/>
      </g>
     </g>
    </g>
    <g id="ytick_11">
     <g id="line2d_47">
      <g>
       <use style="stroke:#000000;stroke-width:0.5;" x="183.15" xlink:href="#m0ece694ec5" y="35.0354716981"/>
      </g>
     </g>
     <g id="line2d_48">
      <g>
       <use style="stroke:#000000;stroke-width:0.5;" x="339.84" xlink:href="#m2c9759a3ac" y="35.0354716981"/>
      </g>
     </g>
    </g>
    <g id="ytick_12">
     <g id="line2d_49">
      <g>
       <use style="stroke:#000000;stroke-width:0.5;" x="183.15" xlink:href="#m0ece694ec5" y="20.16"/>
      </g>
     </g>
     <g id="line2d_50">
      <g>
       <use style="stroke:#000000;stroke-width:0.5;" x="339.84" xlink:href="#m2c9759a3ac" y="20.16"/>
      </g>
     </g>
    </g>
   </g>
   <g id="patch_14">
    <path d="M 246.948384 52.20445 
Q 250.808251 54.536516 254.668118 56.868581 
L 256.736621 53.444944 
Q 260.321118 59.115679 263.905615 64.786415 
Q 257.218364 64.251136 250.531112 63.715857 
L 252.599615 60.292219 
Q 248.739748 57.960153 244.879881 55.628088 
L 246.948384 52.20445 
z
" style="stroke:#000000;stroke-linecap:round;stroke-width:0.1;"/>
   </g>
   <g id="text_16">
    <!-- Core loss -->
    <defs>
     <path d="M 64.40625 67.28125 
L 64.40625 56.890625 
Q 59.421875 61.53125 53.78125 63.8125 
Q 48.140625 66.109375 41.796875 66.109375 
Q 29.296875 66.109375 22.65625 58.46875 
Q 16.015625 50.828125 16.015625 36.375 
Q 16.015625 21.96875 22.65625 14.328125 
Q 29.296875 6.6875 41.796875 6.6875 
Q 48.140625 6.6875 53.78125 8.984375 
Q 59.421875 11.28125 64.40625 15.921875 
L 64.40625 5.609375 
Q 59.234375 2.09375 53.4375 0.328125 
Q 47.65625 -1.421875 41.21875 -1.421875 
Q 24.65625 -1.421875 15.125 8.703125 
Q 5.609375 18.84375 5.609375 36.375 
Q 5.609375 53.953125 15.125 64.078125 
Q 24.65625 74.21875 41.21875 74.21875 
Q 47.75 74.21875 53.53125 72.484375 
Q 59.328125 70.75 64.40625 67.28125 
" id="BitstreamVeraSans-Roman-43"/>
    </defs>
    <g transform="translate(188.387884615 36.4735683962)scale(0.12 -0.12)">
     <use xlink:href="#BitstreamVeraSans-Roman-43"/>
     <use x="69.82421875" xlink:href="#BitstreamVeraSans-Roman-6f"/>
     <use x="131.005859375" xlink:href="#BitstreamVeraSans-Roman-72"/>
     <use x="172.087890625" xlink:href="#BitstreamVeraSans-Roman-65"/>
     <use x="233.611328125" xlink:href="#BitstreamVeraSans-Roman-20"/>
     <use x="265.3984375" xlink:href="#BitstreamVeraSans-Roman-6c"/>
     <use x="293.181640625" xlink:href="#BitstreamVeraSans-Roman-6f"/>
     <use x="354.36328125" xlink:href="#BitstreamVeraSans-Roman-73"/>
     <use x="406.462890625" xlink:href="#BitstreamVeraSans-Roman-73"/>
    </g>
    <!-- edge -->
    <defs>
     <path d="M 45.40625 46.390625 
L 45.40625 75.984375 
L 54.390625 75.984375 
L 54.390625 0 
L 45.40625 0 
L 45.40625 8.203125 
Q 42.578125 3.328125 38.25 0.953125 
Q 33.9375 -1.421875 27.875 -1.421875 
Q 17.96875 -1.421875 11.734375 6.484375 
Q 5.515625 14.40625 5.515625 27.296875 
Q 5.515625 40.1875 11.734375 48.09375 
Q 17.96875 56 27.875 56 
Q 33.9375 56 38.25 53.625 
Q 42.578125 51.265625 45.40625 46.390625 
M 14.796875 27.296875 
Q 14.796875 17.390625 18.875 11.75 
Q 22.953125 6.109375 30.078125 6.109375 
Q 37.203125 6.109375 41.296875 11.75 
Q 45.40625 17.390625 45.40625 27.296875 
Q 45.40625 37.203125 41.296875 42.84375 
Q 37.203125 48.484375 30.078125 48.484375 
Q 22.953125 48.484375 18.875 42.84375 
Q 14.796875 37.203125 14.796875 27.296875 
" id="BitstreamVeraSans-Roman-64"/>
    </defs>
    <g transform="translate(213.411634615 49.9109433962)scale(0.12 -0.12)">
     <use xlink:href="#BitstreamVeraSans-Roman-65"/>
     <use x="61.5234375" xlink:href="#BitstreamVeraSans-Roman-64"/>
     <use x="125.0" xlink:href="#BitstreamVeraSans-Roman-67"/>
     <use x="188.4765625" xlink:href="#BitstreamVeraSans-Roman-65"/>
    </g>
   </g>
  </g>
 </g>
 <defs>
  <clipPath id="p8cf592a10e">
   <rect height="157.68" width="313.38" x="33.66" y="12.96"/>
  </clipPath>
  <clipPath id="p2a348147ec">
   <rect height="78.84" width="156.69" x="183.15" y="20.16"/>
  </clipPath>
 </defs>
</svg>
